<?xml version="1.0" encoding="UTF-8"?>
<svg version="1.1" xmlns="http://www.w3.org/2000/svg" width="682" height="686">
<path d="M0 0 C225.06 0 450.12 0 682 0 C682 226.38 682 452.76 682 686 C456.94 686 231.88 686 0 686 C0 459.62 0 233.24 0 0 Z " fill="#0F2340" transform="translate(0,0)"/>
<path d="M0 0 C13.47981377 10.53923663 16.9331158 24.13958196 19.0234375 40.58203125 C19.14640392 43.22046661 19.23280111 45.83388356 19.26171875 48.47265625 C19.27146729 49.21085602 19.28121582 49.94905579 19.29125977 50.70962524 C19.60771232 80.84658907 19.60771232 80.84658907 15.0234375 95.58203125 C14.51490234 97.41894531 14.51490234 97.41894531 13.99609375 99.29296875 C11.4220784 107.59210721 7.30048419 114.27831853 2.328125 121.3046875 C1.93157715 121.86921631 1.5350293 122.43374512 1.12646484 123.01538086 C0.16850835 124.3759844 -0.79422893 125.73321951 -1.7578125 127.08984375 C-4.68642655 133.07848401 -3.86973628 141.80201047 -1.9140625 148.08203125 C1.7398357 155.94294068 9.25642483 158.88278958 16.92288208 161.81759644 C26.20669283 165.19616388 35.70227263 168.03010637 45.12402344 170.99536133 C82.32257153 182.7312496 82.32257153 182.7312496 91.97265625 200.07421875 C93.59870355 203.95497105 93.88824874 207.39117954 94.0234375 211.58203125 C94.6834375 211.58203125 95.3434375 211.58203125 96.0234375 211.58203125 C96.13956966 223.27414332 96.22827375 234.96611693 96.28249836 246.6586895 C96.30853081 252.08874846 96.34381274 257.51841121 96.40063477 262.94824219 C96.4551811 268.19376617 96.48490576 273.43891037 96.49782372 278.6846962 C96.50702307 280.68049213 96.52498709 282.67626857 96.55208778 284.6719017 C96.82893582 305.91376011 96.82893582 305.91376011 91.0234375 312.58203125 C86.60306568 316.6058368 81.68292622 317.14131708 75.90234375 316.97265625 C75.15758286 316.96699646 74.41282196 316.96133667 73.64549255 316.95550537 C71.2916237 316.93330475 68.9393378 316.88314495 66.5859375 316.83203125 C64.97983986 316.81194491 63.3737181 316.79369789 61.76757812 316.77734375 C57.8522646 316.73349434 53.9381184 316.66458596 50.0234375 316.58203125 C50.01757126 315.83700851 50.01170502 315.09198578 50.00566101 314.3243866 C49.94777311 307.30550336 49.87571937 300.28694228 49.78772259 293.26838207 C49.74298199 289.65998248 49.70373445 286.05169674 49.67700195 282.44311523 C49.65100509 278.9610354 49.61062955 275.47939286 49.56025124 271.99758339 C49.53542986 270.02177926 49.52552811 268.04580605 49.51579285 266.06987 C49.49599869 264.86885147 49.47620453 263.66783295 49.45581055 262.43041992 C49.44470749 261.3711882 49.43360443 260.31195648 49.42216492 259.22062683 C49.23525261 256.55407703 49.23525261 256.55407703 47.6197052 254.73921204 C44.5965607 252.54764684 41.63710158 253.29523251 38.0234375 253.58203125 C22.92192911 268.68353964 35.36785654 296.22805067 35.0234375 317.58203125 C-13.1565625 317.58203125 -61.3365625 317.58203125 -110.9765625 317.58203125 C-110.9765625 296.79203125 -110.9765625 276.00203125 -110.9765625 254.58203125 C-113.77813698 253.64817309 -115.63104053 253.4184853 -118.5390625 253.39453125 C-119.32410156 253.38035156 -120.10914063 253.36617188 -120.91796875 253.3515625 C-123.200917 253.39035616 -123.200917 253.39035616 -124.9765625 255.58203125 C-125.30877651 258.25169239 -125.30877651 258.25169239 -125.29541016 261.40869141 C-125.31527985 262.62980621 -125.33514954 263.85092102 -125.35562134 265.10903931 C-125.36749858 266.44638894 -125.37916139 267.7837405 -125.390625 269.12109375 C-125.40932999 270.48588237 -125.4289029 271.85065936 -125.4493103 273.21542358 C-125.50070855 276.80909368 -125.54029277 280.4028013 -125.57745361 283.99664307 C-125.61744529 287.66322165 -125.6685596 291.3296431 -125.71875 294.99609375 C-125.81560023 302.19129857 -125.89997557 309.3865792 -125.9765625 316.58203125 C-126.96559067 316.59023895 -127.95461884 316.59844666 -128.97361755 316.60690308 C-129.61012017 316.61220598 -130.24662279 316.61750889 -130.90241337 316.62297249 C-132.29240312 316.63446562 -133.68239428 316.64579 -135.07238674 316.65695 C-137.93610034 316.68010978 -140.79974876 316.70422048 -143.6633606 316.737854 C-145.61272503 316.76060224 -147.56223738 316.76949875 -149.51171875 316.77734375 C-150.7737915 316.78781738 -152.03586426 316.79829102 -153.33618164 316.80908203 C-158.61022599 316.48013956 -162.64436946 315.70228449 -166.7265625 312.26953125 C-171.47477014 306.59806101 -172.41783317 302.95370053 -172.36474609 295.7277832 C-172.37000305 294.84578751 -172.37526001 293.96379181 -172.38067627 293.05506897 C-172.39386356 290.14330248 -172.38513882 287.23208445 -172.375 284.3203125 C-172.377022 282.28875118 -172.37993449 280.25719056 -172.38369751 278.22563171 C-172.38811991 273.96618749 -172.38169578 269.70693203 -172.36767578 265.44750977 C-172.3506385 260.00825756 -172.36039103 254.56945126 -172.37839317 249.13021564 C-172.3892798 244.9323954 -172.38576141 240.73467924 -172.3780098 236.5368557 C-172.37601842 234.53274672 -172.37842943 232.52862808 -172.38544846 230.52453041 C-172.39313729 227.71051998 -172.38135316 224.8972107 -172.36474609 222.08325195 C-172.37081879 221.26679199 -172.37689148 220.45033203 -172.38314819 219.60913086 C-172.26230176 208.45766691 -168.26165756 198.51924669 -160.85546875 190.19921875 C-152.52633214 182.12994026 -142.61298445 177.555912 -131.6328125 174.25 C-130.22143705 173.81854396 -128.81048181 173.38571146 -127.39990234 172.95166016 C-126.3106546 172.61669525 -126.3106546 172.61669525 -125.19940186 172.27496338 C-119.22429111 170.41232486 -113.29310449 168.41448917 -107.36523438 166.4074707 C-105.84700746 165.89577322 -104.32711594 165.38899024 -102.80566406 164.88696289 C-86.1705853 159.89676046 -86.1705853 159.89676046 -73.79980469 148.46582031 C-72.28297279 144.99492027 -72.06360528 141.71075776 -72.1015625 137.95703125 C-72.10712158 136.77560547 -72.10712158 136.77560547 -72.11279297 135.5703125 C-72.51915044 126.98971698 -76.63907242 121.95371481 -81.9765625 115.58203125 C-94.34673839 99.45311711 -96.40686473 75.05587231 -96.3515625 55.39453125 C-96.35101868 54.66691589 -96.35047485 53.93930054 -96.34991455 53.18963623 C-96.28332304 33.81790028 -93.30532173 17.40306044 -79.4375 2.8671875 C-58.14237374 -16.90685831 -23.11420897 -16.48034755 0 0 Z " fill="#A9A294" transform="translate(528.9765625,254.41796875)"/>
<path d="M0 0 C1.09610596 0.31348389 1.09610596 0.31348389 2.21435547 0.63330078 C24.07198094 7.14522446 41.64426899 19.35860061 58 35 C58.6703125 35.62261719 59.340625 36.24523437 60.03125 36.88671875 C63.17599555 40.26232856 65.67248181 44.07711001 68.2890625 47.8671875 C70.63440108 51.2197267 72.98010024 54.20379652 76 57 C78.27993598 54.87730098 79.98892666 53.01904614 81.5625 50.3125 C83 48 83 48 86 47 C86.67999016 45.67341205 87.34338384 44.33831141 88 43 C89.62948381 41.04518522 91.26827415 39.17151053 93 37.3125 C93.48911865 36.78503174 93.9782373 36.25756348 94.48217773 35.71411133 C117.05895302 11.66644148 146.72367151 -3.07097561 179.81640625 -4.30859375 C200.91417229 -4.78557961 220.10576675 -2.33793889 239.390625 6.80078125 C241.61996994 7.82534546 243.60593723 8.5154873 246 9 C246 9.66 246 10.32 246 11 C246.86367188 11.24878906 247.72734375 11.49757812 248.6171875 11.75390625 C262.20289172 16.75834002 273.58478928 29.16288423 283.25 39.5625 C283.96760498 40.33170776 283.96760498 40.33170776 284.69970703 41.11645508 C288 44.75290034 288 44.75290034 288 47 C288.66 47 289.32 47 290 47 C291.70187814 49.42781201 293.27421573 51.84590866 294.8125 54.375 C295.26246338 55.10726807 295.71242676 55.83953613 296.17602539 56.59399414 C300.69307681 64.01819661 304.72697974 71.34022445 307.2265625 79.69921875 C308.00806588 82.17190891 308.00806588 82.17190891 309.453125 85.078125 C311.54358564 89.88103873 312.26567678 94.92374716 313.125 100.0625 C313.29386719 101.02994141 313.46273437 101.99738281 313.63671875 102.99414062 C314.10041552 105.66130984 314.55343348 108.32991486 315 111 C315.26804443 112.452854 315.26804443 112.452854 315.54150391 113.93505859 C318.68157914 134.92574254 316.56493642 158.56070333 309.25390625 178.5078125 C307.97278267 182.07580154 306.97283945 185.64958225 306 189.3125 C304.55694384 194.49811645 302.71935146 199.09214715 300.1484375 203.81640625 C298.91995918 206.0432102 298.91995918 206.0432102 297.9765625 208.71484375 C297 211 297 211 295 212 C294.99120064 210.27137474 294.99120064 210.27137474 294.98222351 208.50782776 C294.9246901 197.57889533 294.85177235 186.65015606 294.76428509 175.72142124 C294.71980196 170.10457899 294.68049887 164.4878056 294.65356445 158.87084961 C294.62730938 153.4371556 294.58675487 148.00372985 294.53681374 142.57020378 C294.52029367 140.51051135 294.5086879 138.45077268 294.50238609 136.39102364 C294.44279996 118.68444687 293.81382262 98.94511109 285.0625 83.046875 C284 81 284 81 282.625 77.71484375 C277.59162319 65.85180379 270.11735481 55.99451619 261 47 C260.34515625 46.34644531 259.6903125 45.69289062 259.015625 45.01953125 C239.68944993 26.9735088 211.07080111 16.09664133 184.76953125 16.78515625 C154.14643044 18.53051433 127.21007765 31.35569393 106.578125 54.16894531 C98.61210327 63.41169949 93.30124175 73.91996376 88.39746094 85.03149414 C88.01106445 85.89250732 87.62466797 86.75352051 87.2265625 87.640625 C86.89221191 88.40922852 86.55786133 89.17783203 86.21337891 89.96972656 C84.78625279 92.35765027 83.35005629 93.53541847 81 95 C78.5625 95.43359375 78.5625 95.43359375 76 95.4375 C75.154375 95.45683594 74.30875 95.47617188 73.4375 95.49609375 C70.15894226 94.82882318 69.06216269 93.60088613 67 91 C65.83203125 88.546875 65.83203125 88.546875 64.8125 85.75 C60.05951688 73.82380308 53.66011556 62.51998519 45 53 C44.12859375 52.03578125 43.2571875 51.0715625 42.359375 50.078125 C25.66328189 32.22380624 0.84420185 18.78952719 -23.88427734 17.89575195 C-27.19446906 17.82979073 -30.50167795 17.8143995 -33.8125 17.8125 C-34.92431641 17.80025391 -36.03613281 17.78800781 -37.18164062 17.77539062 C-66.7588302 17.72347046 -92.42933861 31.51601274 -113 52 C-134.95789064 75.38824619 -142.07954477 106.48759909 -141.3046875 137.5546875 C-141.7088492 150.46297235 -141.7088492 150.46297235 -138 162 C-137.87625 163.175625 -137.7525 164.35125 -137.625 165.5625 C-137.21029779 169.13145239 -136.30635756 172.19196065 -134.94921875 175.53515625 C-133.93705626 178.1634465 -133.06783954 180.82620203 -132.20483398 183.5065918 C-130.6300735 188.3936763 -129.07252749 193.18292608 -126.6875 197.75 C-125 201 -125 201 -125 204 C-124.34 204 -123.68 204 -123 204 C-123 205.32 -123 206.64 -123 208 C-122.34 208 -121.68 208 -121 208 C-120.34 209.98 -119.68 211.96 -119 214 C-95.24 214 -71.48 214 -47 214 C-46.34 210.37 -45.68 206.74 -45 203 C-44.4358264 200.87308212 -43.8306075 198.75600134 -43.16015625 196.66015625 C-42.81919922 195.57669922 -42.47824219 194.49324219 -42.12695312 193.37695312 C-41.77568359 192.28318359 -41.42441406 191.18941406 -41.0625 190.0625 C-38.69891564 182.64724738 -36.50915206 175.25485277 -34.67260742 167.69067383 C-33.79410819 164.17635802 -32.73588534 160.76071792 -31.625 157.3125 C-27.79822134 145.29196458 -24.23908069 133.19263707 -21 121 C-20.34 121 -19.68 121 -19 121 C-18.87044922 119.7625 -18.87044922 119.7625 -18.73828125 118.5 C-17.90090391 111.6166046 -16.67208878 105.07595331 -14.6875 98.4375 C-14.49905518 97.77169922 -14.31061035 97.10589844 -14.11645508 96.41992188 C-12.66792175 91.81174963 -10.71908151 89.05841772 -7 86 C-3.05674351 84.87335529 -1.00814733 84.54175121 2.75 86.25 C3.4925 86.8275 4.235 87.405 5 88 C5.51167725 88.38929688 6.02335449 88.77859375 6.55053711 89.1796875 C8.70581738 91.88640296 8.88065394 94.47792214 9.44140625 97.875 C9.69098945 99.32692266 9.94118306 100.77874049 10.19189453 102.23046875 C10.32170715 103.00438965 10.45151978 103.77831055 10.58526611 104.57568359 C11.30607942 108.78917947 12.10818943 112.98732123 12.90234375 117.1875 C13.2390078 118.97654829 13.57559549 120.76561096 13.91210938 122.5546875 C14.08121826 123.45155273 14.25032715 124.34841797 14.42456055 125.27246094 C14.76645918 127.09049594 15.10662938 128.90885685 15.44506836 130.72753906 C17.37566094 141.09481189 19.49198915 151.3436454 22.12695312 161.55541992 C24.18567432 169.67804222 25.53320013 177.93183445 26.9375 186.1875 C29.39290446 201.4473568 29.39290446 201.4473568 33.01953125 216.4453125 C34.02625085 220.09517242 34.58631922 223.62157503 35.0625 227.375 C35.25082566 231.51163611 35.25082566 231.51163611 37 235 C37.33327004 236.56283736 37.61204752 238.13736693 37.8671875 239.71484375 C38.02928711 240.70355469 38.19138672 241.69226563 38.35839844 242.7109375 C38.52887695 243.77570313 38.69935547 244.84046875 38.875 245.9375 C39.23173096 248.12370442 39.58850222 250.30990227 39.9453125 252.49609375 C40.12223633 253.58905762 40.29916016 254.68202148 40.48144531 255.80810547 C41.22329791 260.37448061 41.98603195 264.93728283 42.75 269.5 C42.99491719 270.96872907 43.23972244 272.43747682 43.484375 273.90625 C43.65453125 274.9271875 43.8246875 275.948125 44 277 C44.66 277 45.32 277 46 277 C46.14695312 276.07380859 46.14695312 276.07380859 46.296875 275.12890625 C47.23739125 269.80201679 48.61238522 265.27602514 50.93359375 260.40234375 C52.1292638 257.70880133 53.03637888 254.99301475 53.9375 252.1875 C55.61574172 246.99482268 57.62545789 242.0281934 59.78515625 237.01953125 C61.02201498 233.94528108 61.98530763 230.86015756 62.9375 227.6875 C64.61976202 222.4553218 66.86575564 218.64994716 71 215 C73.92082455 213.53958772 76.48301369 213.88071204 79.74462891 213.88647461 C80.78382225 213.88625557 80.78382225 213.88625557 81.8440094 213.8860321 C84.13822541 213.88672982 86.43236064 213.89451558 88.7265625 213.90234375 C90.31554113 213.90420843 91.90452034 213.9056321 93.49349976 213.90663147 C97.67909325 213.91045269 101.86465213 213.92027961 106.05023193 213.93133545 C110.31994153 213.94155806 114.5896567 213.94613091 118.859375 213.95117188 C127.239601 213.96190222 135.61979221 213.97949584 144 214 C144 220.93 144 227.86 144 235 C123.87 235.33 103.74 235.66 83 236 C77.66466488 249.49692911 77.66466488 249.49692911 73.01953125 263.12890625 C72.15264235 265.5701451 71.18149296 267.8567204 70.109375 270.2109375 C67.91758528 275.0668201 66.15360388 280.02216794 64.4375 285.0625 C61.52345153 293.54619321 58.51853999 301.93175904 55 310.1875 C54.2575 311.94126953 54.2575 311.94126953 53.5 313.73046875 C51.11047619 318.93888393 49.39821406 322.61474262 44 325 C41 325.5 41 325.5 38 325 C31.25565997 319.66726602 29.60868135 313.22818001 28.5625 305.125 C27.69581631 299.05064742 26.6407373 293.18071984 25.0625 287.25 C22.98986278 279.42180866 21.61615647 271.5284298 20.30688477 263.54003906 C20.07183228 262.11643066 20.07183228 262.11643066 19.83203125 260.6640625 C19.69514893 259.81279785 19.5582666 258.9615332 19.41723633 258.08447266 C19.08530351 255.95146928 19.08530351 255.95146928 18 254 C17.67799663 252.25532717 17.39230357 250.50388661 17.125 248.75 C16.38833395 244.14858597 15.50872028 239.61193037 14.5 235.0625 C13.28092825 229.50622825 12.31798769 223.96052182 11.52734375 218.328125 C10.96645676 214.78830487 10.27376917 211.29135054 9.55981445 207.77978516 C8.97137981 204.85788509 8.40847831 201.93197219 7.8515625 199.00390625 C5.90574794 188.78029525 3.95311499 178.55991841 1.8125 168.375 C1.65797363 167.63709229 1.50344727 166.89918457 1.34423828 166.13891602 C0.61243883 162.69643924 -0.17907649 159.28662336 -1.07421875 155.8828125 C-1.91320428 152.36402929 -2.37947987 149.10096194 -2.625 145.5 C-2.73714844 143.93765625 -2.73714844 143.93765625 -2.8515625 142.34375 C-2.90054688 141.5703125 -2.94953125 140.796875 -3 140 C-3.66 140 -4.32 140 -5 140 C-5.68574415 145.21079947 -5.68574415 145.21079947 -6.18359375 150.44140625 C-6.77851694 158.19969023 -9.0023138 164.85167137 -12 172 C-12.66 172 -13.32 172 -14 172 C-14.11859375 172.64195312 -14.2371875 173.28390625 -14.359375 173.9453125 C-16.73590033 185.27728086 -20.01924966 196.35975995 -23.8125 207.2890625 C-25.51255295 212.60172796 -26.7198423 217.99448574 -27.91015625 223.44140625 C-29.23132194 227.75532004 -30.85803383 231.56507203 -34.71596622 234.14954567 C-37.78195748 235.29115994 -40.40124121 235.25828001 -43.67344666 235.26742554 C-44.34303911 235.27195665 -45.01263157 235.27648776 -45.70251471 235.28115618 C-47.94489453 235.29381062 -50.1870318 235.29217918 -52.42944336 235.29052734 C-54.03766696 235.29651189 -55.64588768 235.30331727 -57.25410461 235.31088257 C-61.62184812 235.32855577 -65.98951327 235.33323846 -70.35728908 235.33451414 C-74.00300346 235.33641316 -77.64869959 235.34377059 -81.29440695 235.35085833 C-89.89476704 235.36714435 -98.49508525 235.37202703 -107.09545898 235.37060547 C-115.96942209 235.36940346 -124.84314221 235.39051657 -133.71704382 235.4220928 C-141.3349856 235.44823467 -148.95284791 235.45897367 -156.57083422 235.45769465 C-161.12113617 235.45718447 -165.67122212 235.4628988 -170.22147942 235.48405075 C-174.50038842 235.50339844 -178.77887457 235.5035816 -183.05779839 235.48901749 C-184.62795122 235.48692407 -186.19813028 235.49166202 -187.76823807 235.5037384 C-189.91251364 235.51916257 -192.05532593 235.5099038 -194.1995697 235.49447632 C-195.99895194 235.49611062 -195.99895194 235.49611062 -197.83468533 235.49777794 C-201.62486767 234.9017332 -203.32213528 233.70254285 -206 231 C-206 230.34 -206 229.68 -206 229 C-206.66 229 -207.32 229 -208 229 C-208.66964286 221.23214286 -208.66964286 221.23214286 -205.625 217.5625 C-201.97522848 213.9996278 -200.42133448 213.8757114 -195.44873047 213.88647461 C-194.28767792 213.88655014 -193.12662537 213.88662567 -191.9303894 213.88670349 C-190.67203278 213.89186478 -189.41367615 213.89702606 -188.1171875 213.90234375 C-186.83264679 213.9037587 -185.54810608 213.90517365 -184.22463989 213.90663147 C-180.80843158 213.91045089 -177.39226574 213.92027627 -173.97607422 213.93133545 C-170.49056574 213.94156193 -167.0050504 213.94613174 -163.51953125 213.95117188 C-156.67967005 213.96189904 -149.83983706 213.97896858 -143 214 C-143.33700928 213.19320801 -143.67401855 212.38641602 -144.02124023 211.55517578 C-144.46669189 210.4876709 -144.91214355 209.42016602 -145.37109375 208.3203125 C-145.81122803 207.26602051 -146.2513623 206.21172852 -146.70483398 205.12548828 C-148.17880098 201.56851834 -149.61900232 197.99983887 -151.03125 194.41796875 C-151.67642651 192.80762899 -152.34317295 191.2057626 -153.03125 189.61328125 C-155.53820055 183.71624984 -157.07675808 177.86155491 -158.38671875 171.58984375 C-158.74065598 169.08429758 -158.74065598 169.08429758 -160 168 C-162.56145704 155.76340211 -163.30324931 143.53808763 -163.3125 131.0625 C-163.31773682 129.78487793 -163.32297363 128.50725586 -163.32836914 127.19091797 C-163.06609862 91.24825238 -149.39877198 58.27244921 -124 33 C-123.22052002 32.21665283 -123.22052002 32.21665283 -122.42529297 31.41748047 C-114.66540813 23.69583344 -106.51007715 17.41729315 -97 12 C-96.39349609 11.64953613 -95.78699219 11.29907227 -95.16210938 10.93798828 C-66.85346347 -5.13569051 -31.21127237 -8.93413258 0 0 Z " fill="#66EEC8" transform="translate(271,121)"/>
<path d="M0 0 C4.33216696 -0.26311438 8.66226832 -0.42178059 13 -0.5625 C14.22074219 -0.63791016 15.44148437 -0.71332031 16.69921875 -0.79101562 C25.62116496 -1.00803594 25.62116496 -1.00803594 29.5546875 1.86767578 C32.33350839 4.93595718 34.4766058 8.07909866 36.51953125 11.67358398 C37.94022416 14.25204107 37.94022416 14.25204107 41 16 C42.5 18.5 42.5 18.5 44 21 C45.55894148 22.85474063 47.16104733 24.65847287 48.79296875 26.44921875 C50 28 50 28 50 30 C50.56154785 30.22405518 51.1230957 30.44811035 51.70166016 30.67895508 C54.69800536 32.40120108 56.48263278 34.53930661 58.7734375 37.13671875 C67.63461856 46.97606134 77.07523189 56.26268475 86.43652344 65.62182617 C89.1016609 68.28686146 91.7598077 70.95875589 94.41631508 73.63239002 C96.49602411 75.72330654 98.58035278 77.8095722 100.66593552 79.89462852 C101.64735784 80.87721413 102.62719933 81.86138183 103.6052742 82.84729958 C109.11852346 88.40068124 114.71578476 93.56949269 120.93710327 98.32377625 C122.7665358 99.81029674 124.17092977 101.2219169 125.625 103.0625 C128.15908541 106.19676353 130.90248903 108.61222901 133.96484375 111.2109375 C135.90110808 112.91306622 137.66352537 114.69385851 139.4375 116.5625 C142.61178779 119.82435435 146.07547766 122.13550952 149.984375 124.4453125 C152.43022796 126.3318425 153.41603903 128.35618279 155 131 C156.8813975 132.88984689 158.76417787 134.667249 160.75 136.4375 C161.30840576 136.96351807 161.86681152 137.48953613 162.44213867 138.03149414 C165.54811257 140.9329982 168.66128213 143.50366864 172.19140625 145.875 C177.82367837 149.91633168 182.31002456 153.34952456 183.65332031 160.45654297 C184.29636295 169.00857988 183.83179721 177.47386529 183 186 C178.45820087 182.14956551 173.99542254 178.23136211 169.625 174.1875 C168.78255737 173.40983276 168.78255737 173.40983276 167.9230957 172.61645508 C163.94124208 168.92141784 160.07186421 165.1340288 156.29296875 161.23046875 C153.64832498 158.65791067 150.87946378 156.25925687 148.09448242 153.84057617 C144.84794634 150.98760548 141.70540645 148.02863554 138.5625 145.0625 C137.88002197 144.42062744 137.19754395 143.77875488 136.49438477 143.11743164 C134.32828729 141.07966625 132.16401859 139.03997274 130 137 C110.70298207 118.61240949 110.70298207 118.61240949 90.9296875 100.74609375 C89.06623042 99.05992914 87.29276595 97.30367696 85.51950073 95.52372742 C83.82472647 93.82423893 82.12392094 92.1309291 80.42236328 90.43823242 C76.77278541 86.80656408 73.12635137 83.17175606 69.48095703 79.53588867 C67.91480041 77.97476323 66.34774776 76.41453616 64.77978516 74.85522461 C62.499215 72.5868795 60.22197456 70.31523547 57.9453125 68.04296875 C57.25341827 67.35623581 56.56152405 66.66950287 55.84866333 65.96195984 C51.92889755 62.04263991 48.19363273 58.02478894 44.59371948 53.80903625 C42.96438884 51.95957766 41.25957399 50.2252848 39.5 48.5 C35.7879125 44.83707922 32.39264078 40.95808091 29 37 C28.10452711 35.968437 27.20866381 34.93721282 26.3125 33.90625 C19.4502449 25.9855523 12.83627578 17.89419677 6.34423828 9.66796875 C4.98094736 7.97635895 3.5704513 6.33324196 2.15234375 4.6875 C0 2 0 2 0 0 Z " fill="#67ECC6" transform="translate(155,376)"/>
<path d="M0 0 C0.33 0 0.66 0 1 0 C1.11613216 11.69211207 1.20483625 23.38408568 1.25906086 35.07665825 C1.28509331 40.50671721 1.32037524 45.93637996 1.37719727 51.36621094 C1.4317436 56.61173492 1.46146826 61.85687912 1.47438622 67.10266495 C1.48358557 69.09846088 1.50154959 71.09423732 1.52865028 73.08987045 C1.80549832 94.33172886 1.80549832 94.33172886 -4 101 C-8.42037182 105.02380555 -13.34051128 105.55928583 -19.12109375 105.390625 C-19.86585464 105.38496521 -20.61061554 105.37930542 -21.37794495 105.37347412 C-23.7318138 105.3512735 -26.0840997 105.3011137 -28.4375 105.25 C-30.04359764 105.22991366 -31.6497194 105.21166664 -33.25585938 105.1953125 C-37.1711729 105.15146309 -41.0853191 105.08255471 -45 105 C-45.00586624 104.25497726 -45.01173248 103.50995453 -45.01777649 102.74235535 C-45.07566439 95.72347211 -45.14771813 88.70491103 -45.23571491 81.68635082 C-45.28045551 78.07795123 -45.31970305 74.46966549 -45.34643555 70.86108398 C-45.37243241 67.37900415 -45.41280795 63.89736161 -45.46318626 60.41555214 C-45.48800764 58.43974801 -45.49790939 56.4637748 -45.50764465 54.48783875 C-45.52743881 53.28682022 -45.54723297 52.0858017 -45.56762695 50.84838867 C-45.57873001 49.78915695 -45.58983307 48.72992523 -45.60127258 47.63859558 C-45.78818489 44.97204578 -45.78818489 44.97204578 -47.4037323 43.15718079 C-50.4268768 40.96561559 -53.38633592 41.71320126 -57 42 C-72.10150839 57.10150839 -59.65558096 84.64601942 -60 106 C-108.18 106 -156.36 106 -206 106 C-206 85.21 -206 64.42 -206 43 C-209.3 42.34 -212.6 41.68 -216 41 C-214 39 -214 39 -210.875 38.875 C-209.92625 38.91625 -208.9775 38.9575 -208 39 C-208 39.66 -208 40.32 -208 41 C-207.01 41.33 -206.02 41.66 -205 42 C-198.17739358 55.64521284 -203 93.373022 -203 103 C-156.8 103 -110.6 103 -63 103 C-62.67 83.86 -62.34 64.72 -62 45 C-60 41 -60 41 -58.375 39.75 C-54.87601018 38.64505584 -51.6195787 38.24932762 -48 39 C-45.06877047 41.8560698 -43.03996665 44.38135065 -42.9375 48.53125 C-42.97916667 50.51041667 -43.02083333 52.48958333 -43.0625 54.46875 C-43.17952662 56.99511297 -43.17952662 56.99511297 -42 59 C-41.98339415 61.62894786 -42.02711476 64.2261372 -42.12109375 66.8515625 C-42.14470474 67.62559418 -42.16831573 68.39962585 -42.19264221 69.19711304 C-42.26931438 71.6732603 -42.35332316 74.14909759 -42.4375 76.625 C-42.49071715 78.30206808 -42.54345757 79.97915137 -42.59570312 81.65625 C-42.72493428 85.77103023 -42.86074646 89.88554725 -43 94 C-42.01 94.33 -41.02 94.66 -40 95 C-40.66 95.99 -41.32 96.98 -42 98 C-42.39013716 99.9896995 -42.73202649 101.99019869 -43 104 C-42.27780273 103.83411377 -41.55560547 103.66822754 -40.81152344 103.49731445 C-38.09974302 103.01764298 -35.76008221 102.94246527 -33.015625 103.04296875 C-32.07976562 103.06423828 -31.14390625 103.08550781 -30.1796875 103.10742188 C-28.24181776 103.16039031 -26.30423409 103.22530501 -24.3671875 103.30273438 C-18.37070309 103.41362826 -14.11186506 102.64729309 -8.76855469 99.8684082 C-7 99 -7 99 -5 99 C-2.51708247 94.19969277 -1.86468199 90.56924464 -1.81054688 85.15209961 C-1.80225357 84.45881058 -1.79396027 83.76552155 -1.78541565 83.05122375 C-1.76801653 81.54366777 -1.75284932 80.03608476 -1.73963928 78.52848625 C-1.71850681 76.12468095 -1.69147845 73.72100436 -1.66296387 71.317276 C-1.60327414 66.19073532 -1.55134687 61.06412997 -1.5 55.9375 C-1.4402843 50.04242733 -1.37724421 44.14741357 -1.30812073 38.25244331 C-1.2821049 35.91660102 -1.26093853 33.58075119 -1.2401123 31.24485779 C-1.1301741 20.8073309 -0.65725129 10.41696246 0 0 Z " fill="#B76067" transform="translate(624,466)"/>
<path d="M0 0 C1.11181641 -0.01224609 2.22363281 -0.02449219 3.36914062 -0.03710938 C10.52609821 -0.04967279 17.19934993 0.63740764 24.1875 2.1875 C24.1875 2.5175 24.1875 2.8475 24.1875 3.1875 C23.13691406 3.1153125 22.08632813 3.043125 21.00390625 2.96875 C8.75969119 1.28478932 8.75969119 1.28478932 -2.8125 3.1875 C-2.8125 2.5275 -2.8125 1.8675 -2.8125 1.1875 C-5.87653326 1.63593895 -8.93836279 2.09800654 -12 2.5625 C-13.29647461 2.75199219 -13.29647461 2.75199219 -14.61914062 2.9453125 C-18.96523926 3.61138126 -22.76682401 4.39849465 -26.8125 6.1875 C-28.09125 6.414375 -29.37 6.64125 -30.6875 6.875 C-35.27368805 7.84010691 -39.33169952 9.60147098 -43.5625 11.5625 C-44.2004248 11.85471436 -44.83834961 12.14692871 -45.49560547 12.44799805 C-48.29950819 13.78383695 -50.77525845 15.15768242 -53.203125 17.1015625 C-55.48173235 18.92308395 -57.42240996 20.03981016 -60 21.3359375 C-65.8690721 24.51623486 -70.1956673 29.0588189 -74.8125 33.8125 C-76.09833984 35.10027344 -76.09833984 35.10027344 -77.41015625 36.4140625 C-81.96379996 40.75073289 -81.96379996 40.75073289 -84.8125 46.1875 C-85.4725 46.1875 -86.1325 46.1875 -86.8125 46.1875 C-86.895 46.703125 -86.9775 47.21875 -87.0625 47.75 C-88.32434346 51.85099124 -90.7379853 55.39163278 -92.9296875 59.0546875 C-94.7109099 62.08406574 -96.09896037 64.74748791 -96.8125 68.1875 C-97.42949656 69.41080919 -98.07708851 70.61903434 -98.75 71.8125 C-101.13417235 76.44263181 -102.01086606 81.07600617 -102.8125 86.1875 C-103.312854 89.37725676 -103.83383003 92.2532063 -104.83203125 95.328125 C-105.92280769 99.6216992 -106.07702139 103.35217398 -106 107.75 C-105.99210449 108.53648926 -105.98420898 109.32297852 -105.97607422 110.13330078 C-105.68385663 130.44448098 -102.45298976 149.66258486 -95.375 168.6875 C-95.07529297 169.50347656 -94.77558594 170.31945312 -94.46679688 171.16015625 C-92.71375572 175.89831087 -90.95464853 180.60948045 -88.8125 185.1875 C-88.47014816 186.01225327 -88.12779633 186.83700653 -87.77507019 187.68675232 C-86.36556829 190.59610604 -85.03535381 192.8301396 -82.8125 195.1875 C-78.66409033 196.56940974 -74.73090104 196.33404162 -70.3984375 196.12890625 C-69.19240875 196.1123851 -67.98638 196.09586395 -66.74380493 196.07884216 C-62.88905331 196.01634942 -59.04032572 195.88510659 -55.1875 195.75 C-51.35695607 195.66236055 -47.52634645 195.58874306 -43.69546509 195.51756287 C-41.31542151 195.46820156 -38.9355868 195.40667274 -36.5562439 195.33070374 C-29.23190807 195.11545945 -22.09999149 195.41955319 -14.8125 196.1875 C-14.49611572 194.93634399 -14.49611572 194.93634399 -14.17333984 193.65991211 C-12.6640625 187.69140625 -12.6640625 187.69140625 -11.8125 185.1875 C-11.1525 184.8575 -10.4925 184.5275 -9.8125 184.1875 C-10.8025 188.4775 -11.7925 192.7675 -12.8125 197.1875 C-36.5725 197.1875 -60.3325 197.1875 -84.8125 197.1875 C-85.4725 195.2075 -86.1325 193.2275 -86.8125 191.1875 C-87.4725 191.1875 -88.1325 191.1875 -88.8125 191.1875 C-88.8125 189.8675 -88.8125 188.5475 -88.8125 187.1875 C-89.4725 187.1875 -90.1325 187.1875 -90.8125 187.1875 C-95.45642554 177.14728108 -99.56220854 166.98518426 -102.234375 156.234375 C-102.6259023 154.21133537 -102.6259023 154.21133537 -103.8125 153.1875 C-104.13173492 151.1302083 -104.32411352 149.07136479 -104.53125 147 C-104.63248043 145.1707467 -104.63248043 145.1707467 -105.8125 144.1875 C-111.9489586 115.83437377 -108.96086905 84.97721396 -95.8125 59.1875 C-95.35834717 58.28161133 -95.35834717 58.28161133 -94.89501953 57.35742188 C-81.83302125 31.71745913 -58.92583654 13.29782982 -31.8125 4.1875 C-21.1464801 0.7802992 -11.14452767 0.00639388 0 0 Z " fill="#237570" transform="translate(236.8125,137.8125)"/>
<path d="M0 0 C8.64289815 6.75747829 14.91541619 15.62032044 17.0234375 26.58203125 C17.09747428 28.91418969 17.11859636 31.25063913 17.0234375 33.58203125 C16.6934375 33.58203125 16.3634375 33.58203125 16.0234375 33.58203125 C15.76691406 32.4940625 15.51039063 31.40609375 15.24609375 30.28515625 C12.48219051 19.39964873 8.81485053 9.10963993 -0.9765625 2.58203125 C-0.9765625 1.92203125 -0.9765625 1.26203125 -0.9765625 0.58203125 C-1.9665625 0.58203125 -2.9565625 0.58203125 -3.9765625 0.58203125 C-3.9765625 -0.07796875 -3.9765625 -0.73796875 -3.9765625 -1.41796875 C-5.0078125 -1.68609375 -6.0390625 -1.95421875 -7.1015625 -2.23046875 C-9.60117524 -2.93535954 -11.51663102 -3.69974363 -13.8515625 -4.91796875 C-27.23428513 -11.34167561 -47.22504658 -10.51372457 -61.00390625 -5.7421875 C-73.47182373 -0.18814804 -82.32914427 7.45287451 -87.7265625 20.06640625 C-89.76241302 25.79223583 -90.98824779 31.59526156 -91.9765625 37.58203125 C-92.16089844 38.65453125 -92.34523438 39.72703125 -92.53515625 40.83203125 C-94.73800091 59.54646377 -93.04836269 79.45265355 -87.5390625 97.47265625 C-86.80849637 100.21227923 -86.74817327 102.7652307 -86.9765625 105.58203125 C-88.72470526 102.95981712 -89.41817599 101.49147025 -90.1953125 98.5546875 C-90.40542969 97.76126953 -90.61554688 96.96785156 -90.83203125 96.15039062 C-91.04472656 95.32345703 -91.25742187 94.49652344 -91.4765625 93.64453125 C-91.68925781 92.85240234 -91.90195312 92.06027344 -92.12109375 91.24414062 C-95.24040104 79.29317497 -96.38618835 67.70489581 -96.3515625 55.39453125 C-96.35101868 54.66691589 -96.35047485 53.93930054 -96.34991455 53.18963623 C-96.28332304 33.81790028 -93.30532173 17.40306044 -79.4375 2.8671875 C-58.14237374 -16.90685831 -23.11420897 -16.48034755 0 0 Z " fill="#6FDCC6" transform="translate(528.9765625,254.41796875)"/>
<path d="M0 0 C0.33 0 0.66 0 1 0 C0.99476318 0.83772949 0.98952637 1.67545898 0.98413086 2.53857422 C0.96709986 5.64338936 0.95455518 8.74818071 0.94506836 11.85302734 C0.93755964 13.85906551 0.9248553 15.86508202 0.91210938 17.87109375 C0.90888672 19.12792969 0.90566406 20.38476562 0.90234375 21.6796875 C0.89710693 22.84226074 0.89187012 24.00483398 0.88647461 25.20263672 C0.80643717 27.95502192 0.80643717 27.95502192 2 30 C2.07613143 31.99565819 2.08616698 33.99395964 2.06591797 35.9909668 C2.05615936 37.24955002 2.04640076 38.50813324 2.03634644 39.80485535 C2.02898342 40.47976706 2.02162041 41.15467876 2.01403427 41.85004234 C1.99202286 43.96503852 1.97793497 46.07994512 1.96633911 48.19502258 C1.93274552 54.20948565 1.89135421 60.2238019 1.82861328 66.23803711 C1.79080696 69.91671687 1.76789177 73.59524251 1.75430679 77.27408791 C1.74628604 78.67226252 1.73272484 80.07041734 1.71337509 81.46848106 C1.42590895 91.68213681 1.42590895 91.68213681 5 101 C5.66 101.33 6.32 101.66 7 102 C7 102.99 7 103.98 7 105 C14.61353757 107.06827652 21.70033991 107.23812461 29.5625 107.125 C31.36170898 107.11146484 31.36170898 107.11146484 33.19726562 107.09765625 C36.13172309 107.07427412 39.06575234 107.0415028 42 107 C42.00808685 106.31983826 42.01617371 105.63967651 42.02450562 104.93890381 C42.11049598 97.86614128 42.20999747 90.79366079 42.31738281 83.72119141 C42.35568967 81.08094007 42.39053949 78.44063624 42.421875 75.80029297 C42.46748789 72.00729599 42.52548956 68.21466095 42.5859375 64.421875 C42.59748871 63.23946228 42.60903992 62.05704956 42.62094116 60.83880615 C42.64081085 59.73796692 42.66068054 58.63712769 42.68115234 57.50292969 C42.69447601 56.53474304 42.70779968 55.5665564 42.7215271 54.56903076 C43 52 43 52 45 48 C45 68.13 45 88.26 45 109 C40.029375 109.04125 35.05875 109.0825 29.9375 109.125 C28.38281006 109.14320801 26.82812012 109.16141602 25.22631836 109.18017578 C23.98503174 109.1851709 22.74374512 109.19016602 21.46484375 109.1953125 C19.57173462 109.21102295 19.57173462 109.21102295 17.64038086 109.22705078 C12.36633651 108.89810831 8.33219304 108.12025324 4.25 104.6875 C-0.52693287 98.98171907 -1.4367196 95.33557234 -1.35644531 88.06640625 C-1.35848969 87.17637909 -1.36053406 86.28635193 -1.36264038 85.36935425 C-1.36564325 82.4335257 -1.34718483 79.49826162 -1.328125 76.5625 C-1.32506618 74.518963 -1.32319099 72.47542392 -1.32244873 70.43188477 C-1.31784863 66.15144862 -1.30343437 61.87120091 -1.28125 57.59082031 C-1.25296806 52.10636192 -1.24203792 46.62205186 -1.2375679 41.13752747 C-1.23340902 36.91848266 -1.22358759 32.69946776 -1.21169281 28.48043823 C-1.20599905 26.4582442 -1.2012374 24.43604733 -1.19742584 22.41384888 C-1.19054351 19.587046 -1.17690157 16.76035931 -1.16113281 13.93359375 C-1.16001495 13.09915741 -1.15889709 12.26472107 -1.15774536 11.40499878 C-1.12872113 7.47208728 -0.96895253 3.84007947 0 0 Z " fill="#BA7176" transform="translate(358,462)"/>
<path d="M0 0 C1.15597687 0.00142502 2.31195374 0.00285004 3.50296021 0.00431824 C4.81126801 0.00124161 6.11957581 -0.00183502 7.4675293 -0.00500488 C8.90268121 0.0018945 10.3378314 0.0091616 11.77297974 0.01676941 C13.24027465 0.01796142 14.70757034 0.01841433 16.17486572 0.01815796 C19.25335453 0.01972365 22.33172719 0.02801787 25.41018677 0.04142761 C29.3534554 0.05838769 33.29659595 0.0622428 37.23989677 0.06148243 C40.27165954 0.06175465 43.30339439 0.06724471 46.33514786 0.07448387 C47.78878696 0.07766348 49.24242923 0.07963629 50.69607162 0.08037758 C52.73067106 0.08255031 54.76525857 0.09210063 56.79983521 0.10197449 C58.53618729 0.10769218 58.53618729 0.10769218 60.30761719 0.11352539 C63.28079224 0.24723816 63.28079224 0.24723816 67.28079224 1.24723816 C67.28079224 8.83723816 67.28079224 16.42723816 67.28079224 24.24723816 C56.40579224 24.68473816 56.40579224 24.68473816 52.98049927 24.81535339 C52.09217407 24.8534613 51.20384888 24.89156921 50.28860474 24.93083191 C49.37739868 24.96748962 48.46619263 25.00414734 47.52737427 25.04191589 C45.24595743 25.11300881 45.24595743 25.11300881 43.28079224 26.24723816 C43.28079224 25.58723816 43.28079224 24.92723816 43.28079224 24.24723816 C40.64079224 24.24723816 38.00079224 24.24723816 35.28079224 24.24723816 C34.95079224 24.90723816 34.62079224 25.56723816 34.28079224 26.24723816 C34.28079224 25.58723816 34.28079224 24.92723816 34.28079224 24.24723816 C33.55770874 24.41457458 32.83462524 24.58191101 32.08963013 24.75431824 C29.37461629 25.23077308 27.08306449 25.2778272 24.33938599 25.13395691 C23.42608521 25.10366394 22.51278442 25.07337097 21.57180786 25.04216003 C19.66473093 24.97036727 17.7582902 24.87911432 15.85305786 24.76872253 C13.21131265 24.6996451 10.86983171 24.71307362 8.28079224 25.24723816 C4.94289955 28.75021982 3.64370651 32.53457135 2.28079224 37.12223816 C0.70056877 42.15136206 -1.22251112 46.61051582 -3.71920776 51.24723816 C-4.71920776 49.24723816 -4.71920776 49.24723816 -4.23776245 47.27946472 C-3.81865601 46.09562195 -3.81865601 46.09562195 -3.39108276 44.88786316 C-3.08557495 44.01903503 -2.78006714 43.15020691 -2.46530151 42.25505066 C-2.13659058 41.34497253 -1.80787964 40.43489441 -1.46920776 39.49723816 C-1.15596558 38.60262878 -0.84272339 37.70801941 -0.51998901 36.78630066 C1.16843405 32.03629718 3.0049983 27.79882603 5.28079224 23.24723816 C25.41079224 23.24723816 45.54079224 23.24723816 66.28079224 23.24723816 C66.28079224 16.31723816 66.28079224 9.38723816 66.28079224 2.24723816 C42.85079224 2.24723816 19.42079224 2.24723816 -4.71920776 2.24723816 C-2.71920776 0.24723816 -2.71920776 0.24723816 0 0 Z " fill="#1A6463" transform="translate(348.7192077636719,332.7527618408203)"/>
<path d="M0 0 C1 3 1 3 -0.328125 5.86328125 C-1.27945312 7.57064453 -1.27945312 7.57064453 -2.25 9.3125 C-5.97307459 16.30728384 -7.77598187 23.15686845 -9 31 C-9.27457031 32.60681641 -9.27457031 32.60681641 -9.5546875 34.24609375 C-11.7740543 52.9549665 -10.0702629 72.87565052 -4.5625 90.890625 C-3.83193387 93.63024798 -3.77161077 96.18319945 -4 99 C-5.74814276 96.37778587 -6.44161349 94.909439 -7.21875 91.97265625 C-7.42886719 91.17923828 -7.63898438 90.38582031 -7.85546875 89.56835938 C-8.06816406 88.74142578 -8.28085937 87.91449219 -8.5 87.0625 C-8.71269531 86.27037109 -8.92539062 85.47824219 -9.14453125 84.66210938 C-12.26383854 72.71114372 -13.40962585 61.12286456 -13.375 48.8125 C-13.37445618 48.08488464 -13.37391235 47.35726929 -13.37335205 46.60760498 C-13.31316028 29.09757696 -11.00597216 14.27183927 0 0 Z " fill="#62C2B2" transform="translate(446,261)"/>
<path d="M0 0 C1.0209375 0.00580078 1.0209375 0.00580078 2.0625 0.01171875 C4 0.3125 4 0.3125 7 2.3125 C7.36076355 4.94473267 7.36076355 4.94473267 7.34057617 8.32275391 C7.34034958 9.58391022 7.34012299 10.84506653 7.33988953 12.1444397 C7.32456844 13.52598421 7.30892044 14.90752513 7.29296875 16.2890625 C7.28737433 17.69867503 7.2831035 19.10829338 7.28010559 20.51791382 C7.26864454 24.23018464 7.23916704 27.942104 7.20599365 31.65423584 C7.1753196 35.44131719 7.16160599 39.22845526 7.14648438 43.015625 C7.11429811 50.448077 7.0630871 57.88023928 7 65.3125 C6.67 65.3125 6.34 65.3125 6 65.3125 C5.24710124 56.1862023 4.91996777 47.13296567 4.97265625 37.9765625 C4.97816498 36.99669373 4.98367371 36.01682495 4.98934937 35.00726318 C5.017023 30.94159635 5.05246058 26.87607554 5.09594727 22.81054688 C5.12595279 19.80337944 5.14382872 16.79633064 5.16015625 13.7890625 C5.17361588 12.86525787 5.1870755 11.94145325 5.20094299 10.98965454 C5.20432175 10.14051483 5.2077005 9.29137512 5.21118164 8.41650391 C5.21863907 7.66978424 5.2260965 6.92306458 5.23377991 6.15371704 C5.15935394 4.06358162 5.15935394 4.06358162 3 2.3125 C-0.09926819 2.63448966 -0.09926819 2.63448966 -3 3.3125 C-5.19385228 9.59975959 -5.42769342 15.62789778 -5.625 22.25 C-5.66367187 23.31541016 -5.70234375 24.38082031 -5.7421875 25.47851562 C-5.83586146 28.08967734 -5.92158335 30.70084304 -6 33.3125 C-5.34 33.6425 -4.68 33.9725 -4 34.3125 C-4.03029297 35.00811035 -4.06058594 35.7037207 -4.09179688 36.42041016 C-4.22919482 39.59271743 -4.36461526 42.7651062 -4.5 45.9375 C-4.57154297 47.57912109 -4.57154297 47.57912109 -4.64453125 49.25390625 C-4.68964844 50.31738281 -4.73476563 51.38085938 -4.78125 52.4765625 C-4.82314453 53.45061035 -4.86503906 54.4246582 -4.90820312 55.42822266 C-5.00251964 58.3916675 -5.01538125 61.34776326 -5 64.3125 C-5.99 64.8075 -5.99 64.8075 -7 65.3125 C-7.06948318 57.28054958 -7.12280239 49.24872455 -7.15543652 41.21654797 C-7.17109859 37.48694945 -7.19234629 33.75755642 -7.22631836 30.02807617 C-7.25889319 26.42950226 -7.27684894 22.83112611 -7.28463173 19.23241615 C-7.29017868 17.85885822 -7.30101052 16.48531122 -7.31719017 15.11183739 C-7.33893676 13.18949293 -7.34022517 11.26694985 -7.34057617 9.34448242 C-7.34723801 8.24972092 -7.35389984 7.15495941 -7.36076355 6.02702332 C-7 3.3125 -7 3.3125 -5.59980774 1.45820618 C-3.59838863 0.02488505 -2.44341909 -0.06015994 0 0 Z " fill="#180F26" transform="translate(571,506.6875)"/>
<path d="M0 0 C1.70627563 0.00797607 1.70627563 0.00797607 3.44702148 0.01611328 C11.51186252 0.1071763 19.20662189 0.64192601 27.125 2.25 C28.02476562 2.40597656 28.92453125 2.56195313 29.8515625 2.72265625 C33.91491914 3.49017917 36.38875286 4.14101331 39.125 7.25 C34.10347673 6.68596849 29.36012349 5.84939631 24.4375 4.6875 C7.20463172 1.14130947 -12.93115674 1.47835445 -29.875 6.25 C-30.58092285 6.44867676 -31.2868457 6.64735352 -32.01416016 6.85205078 C-42.17016111 9.78737472 -51.48316584 13.76016118 -60.8125 18.7109375 C-63.875 20.25 -63.875 20.25 -65.875 20.25 C-65.875 19.59 -65.875 18.93 -65.875 18.25 C-39.39676542 4.75241838 -39.39676542 4.75241838 -25.875 3.25 C-25.545 2.92 -25.215 2.59 -24.875 2.25 C-16.61687972 0.33512505 -8.44464003 -0.07154879 0 0 Z " fill="#247672" transform="translate(235.875,114.75)"/>
<path d="M0 0 C0.33 0 0.66 0 1 0 C1.8822944 5.29858526 2.14629027 10.38778801 2.1328125 15.75390625 C2.13426773 16.59616257 2.13572296 17.43841888 2.13722229 18.30619812 C2.13946866 21.05834401 2.13317919 23.81036638 2.125 26.5625 C2.12311676 27.50420044 2.12123352 28.44590088 2.11929321 29.4161377 C2.0886664 42.53771768 2.0012855 55.66040485 1.73553467 68.7795105 C1.70374578 70.41445684 1.67653629 72.04949922 1.65411377 73.68460083 C1.62095113 75.96216988 1.56898645 78.23855061 1.51171875 80.515625 C1.48553467 81.79727539 1.45935059 83.07892578 1.43237305 84.39941406 C0.79742766 89.6869209 -1.03134014 93.54701021 -4 98 C-4.99 98 -5.98 98 -7 98 C-7 98.66 -7 99.32 -7 100 C-11.74478095 102.81376545 -15.61785968 103.41040161 -21.0234375 103.29296875 C-21.76961334 103.28872391 -22.51578918 103.28447906 -23.28457642 103.28010559 C-25.64843098 103.26342382 -28.01140676 103.22579339 -30.375 103.1875 C-31.9856647 103.17243949 -33.59634287 103.15875348 -35.20703125 103.14648438 C-39.13835515 103.11355504 -43.06902901 103.06184762 -47 103 C-47 102.67 -47 102.34 -47 102 C-46.1028125 101.9906543 -45.205625 101.98130859 -44.28125 101.97167969 C-40.91851661 101.92738749 -37.55700653 101.86565338 -34.19482422 101.79248047 C-32.74604784 101.76443964 -31.29712328 101.74314189 -29.84814453 101.72900391 C-21.69365219 101.64470523 -15.11652378 101.44782736 -8 97 C-7.34 97 -6.68 97 -6 97 C-5.731875 96.29875 -5.46375 95.5975 -5.1875 94.875 C-4 92 -4 92 -2.45280457 89.35629272 C-0.65353167 85.19958323 -0.55942426 81.8974582 -0.56762695 77.42431641 C-0.5574353 76.58463318 -0.54724365 75.74494995 -0.53674316 74.87982178 C-0.50668808 72.12033348 -0.49735872 69.36119276 -0.48828125 66.6015625 C-0.47142901 64.681985 -0.45327803 62.76241849 -0.43388367 60.84286499 C-0.3864368 55.80250485 -0.35659303 50.76218932 -0.33044434 45.72167969 C-0.30061204 40.57347812 -0.25409085 35.42543014 -0.20898438 30.27734375 C-0.12301168 20.18497626 -0.05563951 10.09257711 0 0 Z " fill="#0D0D25" transform="translate(626,470)"/>
<path d="M0 0 C1.09054687 -0.07734375 1.09054687 -0.07734375 2.203125 -0.15625 C6.36512565 0.91616735 9.0813602 3.16295166 11.75 6.5 C13.18956882 9.85349206 13.85493722 13.23074478 14.5 16.8125 C14.69553467 17.77784668 14.89106934 18.74319336 15.0925293 19.73779297 C15.67452122 22.65376242 16.21628739 25.57485396 16.75 28.5 C17.07366617 30.19411608 17.39784975 31.88813343 17.72265625 33.58203125 C19.75 44.43421639 19.75 44.43421639 19.75 49.5 C20.41 49.83 21.07 50.16 21.75 50.5 C21.09 50.5 20.43 50.5 19.75 50.5 C20.224375 51.345625 20.69875 52.19125 21.1875 53.0625 C24.18455185 59.65601407 23.87863936 66.39624846 23.75 73.5 C23.42 73.5 23.09 73.5 22.75 73.5 C16.94714934 45.76783948 16.94714934 45.76783948 14.5625 33.1875 C14.40297852 32.35331543 14.24345703 31.51913086 14.07910156 30.65966797 C13.33055535 26.71214595 12.62132558 22.76337146 11.98046875 18.796875 C11.85631592 18.05864502 11.73216309 17.32041504 11.60424805 16.55981445 C11.27590179 14.59267866 10.96531007 12.62260169 10.65625 10.65234375 C9.64285871 7.12731455 8.63946372 5.71241226 5.75 3.5 C0.75636229 2.20535319 -2.5067392 2.53328211 -7.25 4.5 C-7.25 3.84 -7.25 3.18 -7.25 2.5 C-4.28180236 0.52120157 -3.38857697 0.14217805 0 0 Z " fill="#257672" transform="translate(268.25,204.5)"/>
<path d="M0 0 C2.96311369 2.96311369 3.91404329 5.72612156 4.1953125 9.89453125 C4.16050781 11.33892578 4.16050781 11.33892578 4.125 12.8125 C4.10695313 13.78832031 4.08890625 14.76414063 4.0703125 15.76953125 C4.03550781 16.87361328 4.03550781 16.87361328 4 18 C4.66 18.33 5.32 18.66 6 19 C7.25281518 21.50563035 7.06422039 23.13989919 7 25.9375 C6.95497363 29.78975641 7.11417401 33.48754156 7.5625 37.3125 C9.03249722 52.09647206 6.32386786 67.875365 2 82 C1.34 82 0.68 82 0 82 C0.91330758 76.47581921 0.91330758 76.47581921 1.36376953 74.00341797 C5.3912696 51.66818292 5.39239192 29.25782021 1 7 C0.63633176 4.66964494 0.3143406 2.33771744 0 0 Z " fill="#1A6162" transform="translate(582,212)"/>
<path d="M0 0 C0.99 0.495 0.99 0.495 2 1 C2.61073168 3.20623167 3.11445258 5.44257129 3.5625 7.6875 C3.81128906 8.90824219 4.06007813 10.12898438 4.31640625 11.38671875 C4.73242121 13.58565497 5.13051238 15.78821259 5.49609375 17.99609375 C6.07972189 21.47524132 6.78762531 24.91998278 7.5 28.375 C8.32318449 32.40316189 9.12129473 36.4088239 9.5625 40.5 C9.93316504 43.46532031 10.59914788 46.05250656 11.4362793 48.90380859 C12.55785134 53.07436621 13.31924334 57.32183256 14.125 61.5625 C14.30675781 62.48224609 14.48851562 63.40199219 14.67578125 64.34960938 C15.55822651 68.96420093 16.23578108 73.27651902 16 78 C13.50517097 75.50517097 13.61279473 73.68249309 13.34375 70.265625 C13.04797217 67.8650105 13.04797217 67.8650105 12.02734375 65.1484375 C10.95338203 61.85713275 10.47689286 58.80854082 10.0625 55.375 C9.31828852 49.8224847 8.2139229 44.53659101 6.7890625 39.125 C4.4102738 29.70405467 2.77814937 20.12838104 1.4296875 10.51171875 C1.12708995 8.01252292 1.12708995 8.01252292 0 6 C-0.039992 4.00039988 -0.04346799 1.99952758 0 0 Z " fill="#287D76" transform="translate(294,288)"/>
<path d="M0 0 C0.66 0 1.32 0 2 0 C2.18175781 1.14855469 2.36351562 2.29710937 2.55078125 3.48046875 C2.80445955 5.04951604 3.05837904 6.61852434 3.3125 8.1875 C3.43044922 8.93708984 3.54839844 9.68667969 3.66992188 10.45898438 C4.60885768 16.21297561 5.8600847 21.8612008 7.19506836 27.53540039 C8.59173086 33.54693743 9.8597123 39.58468184 11.125 45.625 C11.38925781 46.85734375 11.65351563 48.0896875 11.92578125 49.359375 C13.4335329 56.56903009 14.54472705 63.64573609 15 71 C14.34 70.67 13.68 70.34 13 70 C12.52929688 68.23754883 12.52929688 68.23754883 12.21875 65.95703125 C12.09886719 65.13009766 11.97898437 64.30316406 11.85546875 63.45117188 C11.73816406 62.58041016 11.62085938 61.70964844 11.5 60.8125 C10.74162821 55.30805423 9.8665639 50.25824709 8 45 C7.66623547 43.29939027 7.3758224 41.58980621 7.125 39.875 C6.069849 33.12713918 4.70833737 26.45293795 3.32080078 19.76708984 C3.06532471 18.51919678 3.06532471 18.51919678 2.8046875 17.24609375 C2.64983887 16.50029053 2.49499023 15.7544873 2.33544922 14.98608398 C2 13 2 13 2 10 C1.54625 10.45375 1.0925 10.9075 0.625 11.375 C-0.58333333 12.58333333 -1.79166667 13.79166667 -3 15 C-2 10 -1 5 0 0 Z " fill="#328D83" transform="translate(266,261)"/>
<path d="M0 0 C1.11181641 -0.01224609 2.22363281 -0.02449219 3.36914062 -0.03710938 C10.52609821 -0.04967279 17.19934993 0.63740764 24.1875 2.1875 C24.1875 2.5175 24.1875 2.8475 24.1875 3.1875 C23.13691406 3.1153125 22.08632813 3.043125 21.00390625 2.96875 C8.75969119 1.28478932 8.75969119 1.28478932 -2.8125 3.1875 C-2.8125 2.5275 -2.8125 1.8675 -2.8125 1.1875 C-5.87653326 1.63593895 -8.93836279 2.09800654 -12 2.5625 C-13.29647461 2.75199219 -13.29647461 2.75199219 -14.61914062 2.9453125 C-18.96523926 3.61138126 -22.76682401 4.39849465 -26.8125 6.1875 C-28.09125 6.414375 -29.37 6.64125 -30.6875 6.875 C-35.27368805 7.84010691 -39.33169952 9.60147098 -43.5625 11.5625 C-44.2004248 11.85471436 -44.83834961 12.14692871 -45.49560547 12.44799805 C-49.37299549 14.29526914 -52.51056784 16.46693368 -55.8125 19.1875 C-58.1042667 20.37549512 -60.40214274 21.24226186 -62.8125 22.1875 C-61.44766783 18.0930035 -58.73860456 16.95750319 -55.1875 14.875 C-54.5181543 14.47909668 -53.84880859 14.08319336 -53.15917969 13.67529297 C-36.39885579 4.02576568 -19.207594 0.01101985 0 0 Z " fill="#21716D" transform="translate(236.8125,137.8125)"/>
<path d="M0 0 C0.33 0 0.66 0 1 0 C1.80346644 4.98011713 2.18296616 9.84304975 2.23828125 14.890625 C2.24802979 15.62882477 2.25777832 16.36702454 2.26782227 17.12759399 C2.58545584 47.37703031 2.58545584 47.37703031 -2 62 C-2.36222656 63.25941406 -2.72445312 64.51882813 -3.09765625 65.81640625 C-5.78387362 74.25750287 -9.77972771 80.92737303 -15 88 C-15.33 87.01 -15.66 86.02 -16 85 C-14.8443749 83.45916654 -13.68841741 81.91858177 -12.53125 80.37890625 C-7.43754796 72.46547629 -4.77273369 63.0394618 -2.6875 53.9375 C-2.52822021 53.25518311 -2.36894043 52.57286621 -2.20483398 51.86987305 C0.38252245 39.6515634 0.14002531 27.05245298 0.0625 14.625 C0.05746589 13.1953141 0.05290643 11.76562645 0.04882812 10.3359375 C0.03799465 6.89058755 0.02083984 3.44530573 0 0 Z " fill="#71E0C8" transform="translate(546,288)"/>
<path d="M0 0 C0.66 0.33 1.32 0.66 2 1 C1.36908447 1.62044189 0.73816895 2.24088379 0.08813477 2.88012695 C-2.25102326 5.18519339 -4.58560595 7.4947021 -6.91723633 9.80737305 C-7.92715753 10.80723882 -8.93886677 11.80530193 -9.95239258 12.80151367 C-11.40920656 14.23405932 -12.85945986 15.67297215 -14.30859375 17.11328125 C-15.18314209 17.97735596 -16.05769043 18.84143066 -16.95874023 19.73168945 C-19.19172345 21.90927643 -19.19172345 21.90927643 -20 25 C-20.66 25 -21.32 25 -22 25 C-22.0825 25.515625 -22.165 26.03125 -22.25 26.5625 C-23.51184346 30.66349124 -25.9254853 34.20413278 -28.1171875 37.8671875 C-29.90218228 40.90298155 -31.27536321 43.55973405 -32 47 C-32.77841281 48.8687332 -33.5937764 50.72233132 -34.4375 52.5625 C-34.86933594 53.51253906 -35.30117187 54.46257812 -35.74609375 55.44140625 C-37 58 -37 58 -39 61 C-38.46088989 55.71126162 -37.13896087 51.29093928 -34.9375 46.4375 C-34.62586914 45.74422607 -34.31423828 45.05095215 -33.99316406 44.33666992 C-25.74024731 26.33011946 -14.84827382 12.9306957 0 0 Z " fill="#2A8079" transform="translate(172,159)"/>
<path d="M0 0 C7.79684975 -0.25961583 14.93924154 0.55350657 22.57421875 2.06640625 C23.45255371 2.24002686 24.33088867 2.41364746 25.23583984 2.5925293 C31.49537886 3.92506636 31.49537886 3.92506636 33.76171875 6.19140625 C32.43140625 6.00578125 32.43140625 6.00578125 31.07421875 5.81640625 C30.42066406 5.72746094 29.76710938 5.63851562 29.09375 5.546875 C27.45955227 5.29777618 25.83171836 5.00483649 24.2109375 4.6796875 C1.6645324 0.46903436 -21.63114585 2.88783855 -42.23828125 13.19140625 C-42.89828125 12.53140625 -43.55828125 11.87140625 -44.23828125 11.19140625 C-29.76784242 4.95414813 -15.78936539 0.93326768 0 0 Z " fill="#257A74" transform="translate(455.23828125,136.80859375)"/>
<path d="M0 0 C2.29013653 3.4352048 2.17842973 4.985331 2 9 C2.66 9 3.32 9 4 9 C5.17307132 22.1761047 4.9947644 34.83713536 4 48 C3.34 48 2.68 48 2 48 C2.33 49.98 2.66 51.96 3 54 C2.67 54 2.34 54 2 54 C1.34 56.64 0.68 59.28 0 62 C-0.98033008 58.07867967 -0.96409697 57.07090956 -0.07421875 53.375 C1.37035286 46.05616116 1.26449136 38.82239284 1.20581055 31.39355469 C1.18753403 29.00444825 1.18530178 26.61573175 1.18554688 24.2265625 C1.16625409 16.10208766 0.96645817 8.07865608 0 0 Z " fill="#236165" transform="translate(546,284)"/>
<path d="M0 0 C0.99 0.33 1.98 0.66 3 1 C2.67386719 1.61746094 2.34773438 2.23492187 2.01171875 2.87109375 C-0.43551837 7.61396923 -2.53120898 12.23104799 -4.125 17.3203125 C-6.99474612 26.10891 -10.32200438 34.80291965 -14.20703125 43.19140625 C-15.11800183 45.17415595 -15.11800183 45.17415595 -15.9375 48.0625 C-17.39146396 52.0822827 -19.64166697 55.45349918 -22 59 C-22.66 58.67 -23.32 58.34 -24 58 C-23.38125 57.071875 -23.38125 57.071875 -22.75 56.125 C-20.81180156 52.66393135 -19.40120268 49.15601518 -17.96484375 45.46484375 C-17.20460668 43.52269967 -16.39277796 41.60074921 -15.5625 39.6875 C-12.32118075 32.1831413 -9.45930725 24.52391763 -6.9375 16.75 C-5.04684361 10.9550613 -2.72452649 5.44905297 0 0 Z " fill="#267771" transform="translate(343,385)"/>
<path d="M0 0 C0.33 0 0.66 0 1 0 C1.01458252 0.73822998 1.02916504 1.47645996 1.04418945 2.23706055 C1.42783051 19.72594155 2.39657356 36.84907608 6 54 C5.34 54 4.68 54 4 54 C-0.05449074 36.45757005 -2.2619062 19.05692334 -1 1 C-0.67 0.67 -0.34 0.34 0 0 Z " fill="#1B6463" transform="translate(107,240)"/>
<path d="M0 0 C0.66 0.33 1.32 0.66 2 1 C-1.26404274 3.70147882 -4.55429679 6.01401802 -8.1875 8.1875 C-20.46831621 15.94120567 -31.26026306 26.93101116 -38.84375 39.3203125 C-40 41 -40 41 -42 42 C-35.5982267 24.39512343 -18.37156368 11.42945097 -3 2 C-2.01 1.34 -1.02 0.68 0 0 Z " fill="#20706C" transform="translate(409,149)"/>
<path d="M0 0 C2 2 2 2 2.22032166 4.62309265 C2.20683182 5.73449112 2.19334198 6.84588959 2.17944336 7.9909668 C2.16960922 9.24955002 2.15977509 10.50813324 2.14964294 11.80485535 C2.139783 12.47976706 2.12992306 13.15467876 2.11976433 13.85004234 C2.0896178 15.96507108 2.07279665 18.07982378 2.05970764 20.19502258 C2.01995596 26.20957235 1.95517966 32.22379114 1.88354492 38.23803711 C1.8406544 41.91669384 1.81266225 45.59523643 1.79324532 49.27408791 C1.78272129 50.67227595 1.76637305 52.07043338 1.74394035 53.46848106 C1.42908583 63.68259393 1.42908583 63.68259393 5 73 C5.66 73.33 6.32 73.66 7 74 C7 74.66 7 75.32 7 76 C2.37677116 74.540033 2.37677116 74.540033 0.85012817 72.35186768 C-0.2927428 69.19013113 -0.23914487 66.48227412 -0.22705078 63.12011719 C-0.22734283 62.43678314 -0.22763489 61.7534491 -0.22793579 61.04940796 C-0.22654624 58.79843294 -0.21100302 56.54779196 -0.1953125 54.296875 C-0.19158103 52.73317648 -0.18873469 51.16947562 -0.18673706 49.60577393 C-0.17911114 45.49578362 -0.15947164 41.3859353 -0.1373291 37.27600098 C-0.11684822 33.07985352 -0.10773055 28.88368306 -0.09765625 24.6875 C-0.07622472 16.45826827 -0.04210139 8.22915181 0 0 Z " fill="#D17E7F" transform="translate(358,490)"/>
<path d="M0 0 C0.66 0 1.32 0 2 0 C1.67 0.928125 1.34 1.85625 1 2.8125 C-0.14967004 5.92029291 -0.14967004 5.92029291 0 9 C-0.69792338 11.0605357 -1.52016728 13.04929779 -2.34375 15.0625 C-3.16040352 17.13263525 -3.16040352 17.13263525 -3 20 C-4.28680332 27.06172553 -5.84548603 34.67026176 -11 40 C-13.16015625 40.70703125 -13.16015625 40.70703125 -15 41 C-14.01 40.505 -14.01 40.505 -13 40 C-8.93634326 31.33086563 -6.72063499 21.65491307 -4.16210938 12.46484375 C-2.96537339 8.21320076 -1.77997838 4.05392206 0 0 Z " fill="#206666" transform="translate(251,314)"/>
<path d="M0 0 C3.96 0 7.92 0 12 0 C11.113125 1.03125 10.22625 2.0625 9.3125 3.125 C7.23870648 5.5378735 5.19926452 7.97279435 3.1875 10.4375 C2.465625 11.283125 1.74375 12.12875 1 13 C0.67 13 0.34 13 0 13 C0 8.71 0 4.42 0 0 Z " fill="#162F46" transform="translate(0,0)"/>
<path d="M0 0 C0.33 0 0.66 0 1 0 C1.36476427 6.32258065 1.36476427 6.32258065 -0.3125 9.4375 C-2 11 -2 11 -5 11 C-5 11.66 -5 12.32 -5 13 C-9.74478095 15.81376545 -13.61785968 16.41040161 -19.0234375 16.29296875 C-19.76961334 16.28872391 -20.51578918 16.28447906 -21.28457642 16.28010559 C-23.64843098 16.26342382 -26.01140676 16.22579339 -28.375 16.1875 C-29.9856647 16.17243949 -31.59634287 16.15875348 -33.20703125 16.14648438 C-37.13835515 16.11355504 -41.06902901 16.06184762 -45 16 C-45 15.67 -45 15.34 -45 15 C-43.65421875 14.98598145 -43.65421875 14.98598145 -42.28125 14.97167969 C-38.91851661 14.92738749 -35.55700653 14.86565338 -32.19482422 14.79248047 C-30.74604784 14.76443964 -29.29712328 14.74314189 -27.84814453 14.72900391 C-19.69365219 14.64470523 -13.11652378 14.44782736 -6 10 C-5.34 10 -4.68 10 -4 10 C-3.71125 9.278125 -3.4225 8.55625 -3.125 7.8125 C-2.08333333 5.20833333 -1.04166667 2.60416667 0 0 Z " fill="#1D0920" transform="translate(624,557)"/>
<path d="M0 0 C5.24555629 -0.43712969 5.24555629 -0.43712969 8 0 C10.57975861 2.51361096 12.91537228 5.11289453 13.08229065 8.83499146 C13.05231239 9.94751785 13.05231239 9.94751785 13.02172852 11.08251953 C12.99158409 12.34360031 12.99158409 12.34360031 12.96083069 13.63015747 C12.92027809 14.99272171 12.92027809 14.99272171 12.87890625 16.3828125 C12.85529526 17.31221649 12.83168427 18.24162048 12.80735779 19.19918823 C12.7306391 22.17461106 12.64665009 25.14977896 12.5625 28.125 C12.50928753 30.13931034 12.45654708 32.15363322 12.40429688 34.16796875 C12.27501284 39.11214132 12.13920707 44.05609727 12 49 C11.67 49 11.34 49 11 49 C10.98541748 47.71311279 10.97083496 46.42622559 10.95581055 45.1003418 C10.89788852 40.3310145 10.82065537 35.56216238 10.73754883 30.79321289 C10.70427076 28.7281871 10.67624786 26.66306973 10.65356445 24.59790039 C10.62007145 21.63127568 10.56775855 18.66549252 10.51171875 15.69921875 C10.50532883 14.7741301 10.4989389 13.84904144 10.49235535 12.8959198 C10.47256119 12.03525406 10.45276703 11.17458832 10.43237305 10.2878418 C10.42126999 9.53061325 10.41016693 8.7733847 10.39872742 7.99320984 C9.88618615 5.43105272 9.05746499 4.57769638 7 3 C4.69011685 2.25613932 2.35684056 1.57809297 0 1 C0 0.67 0 0.34 0 0 Z " fill="#B6757A" transform="translate(568,505)"/>
<path d="M0 0 C1 2 1 2 0.3125 4.75 C-1 8 -1 8 -3.0625 11.0625 C-4.9791521 13.96839189 -5.4005836 15.66039434 -6 19 C-7.77266435 22.5453287 -9.367171 25.27918626 -13 27 C-16.05241846 26.94190899 -18.99697272 26.53258817 -22 26 C-22 25.67 -22 25.34 -22 25 C-21.3709375 25.04125 -20.741875 25.0825 -20.09375 25.125 C-16.83243112 24.96782801 -14.89800867 24.56459443 -12 23 C-8.80669076 18.84974241 -6.93612645 13.83932829 -4.91894531 9.04541016 C-3.50165185 5.89076494 -1.76750542 2.9704992 0 0 Z " fill="#22696A" transform="translate(366,191)"/>
<path d="M0 0 C0.33 0 0.66 0 1 0 C1.1249586 4.23167484 1.21496477 8.46233173 1.2746582 12.6953125 C1.29957855 14.13072448 1.33352875 15.56601257 1.37719727 17.00097656 C1.63788127 25.7967616 1.57844386 33.65758746 -4 41 C-6.35398586 43.06420848 -7.99636127 43.85315612 -11 45 C-13.4375 44.75 -13.4375 44.75 -15 44 C-12.525 43.505 -12.525 43.505 -10 43 C-10 42.34 -10 41.68 -10 41 C-9.21625 40.7525 -8.4325 40.505 -7.625 40.25 C-4.56901693 38.79476997 -4.14974467 38.09546642 -3 35 C-2.66178223 34.27530518 -2.32356445 33.55061035 -1.97509766 32.80395508 C-0.79777045 29.41847612 -0.67739104 26.53114914 -0.5859375 22.94921875 C-0.56657135 22.29041214 -0.5472052 21.63160553 -0.5272522 20.95283508 C-0.46784059 18.86451857 -0.42122709 16.77614576 -0.375 14.6875 C-0.33678468 13.26495095 -0.29773091 11.84242416 -0.2578125 10.41992188 C-0.16217204 6.94681926 -0.07800027 3.47354868 0 0 Z " fill="#C3636B" transform="translate(624,526)"/>
<path d="M0 0 C0.99 0.495 0.99 0.495 2 1 C2.52734375 3.66015625 2.52734375 3.66015625 2.9375 7.0625 C3.68821044 12.49621363 4.89204368 16.9592349 7 22 C7.98775663 25.06973467 8.06775127 25.79674618 7 29 C6.34 29 5.68 29 5 29 C-0.33256881 6.31880734 -0.33256881 6.31880734 0 0 Z " fill="#2E8F81" transform="translate(310,369)"/>
<path d="M0 0 C3 3 3 3 3.2487793 5.72729492 C3.19117432 6.80084229 3.13356934 7.87438965 3.07421875 8.98046875 C3.01943359 10.14384766 2.96464844 11.30722656 2.90820312 12.50585938 C2.83537109 13.72080078 2.76253906 14.93574219 2.6875 16.1875 C2.62626953 17.41404297 2.56503906 18.64058594 2.50195312 19.90429688 C2.34853758 22.93720422 2.18066191 25.96861342 2 29 C1.34 29 0.68 29 0 29 C0 19.43 0 9.86 0 0 Z " fill="#195254" transform="translate(338,533)"/>
<path d="M0 0 C0.66 0.33 1.32 0.66 2 1 C0.07364416 15.08827406 -4.59113745 26.60734752 -13 38 C-13.495 36.515 -13.495 36.515 -14 35 C-12.84796667 33.46395556 -11.69441003 31.92903998 -10.53515625 30.3984375 C-4.75465598 21.36732511 -2.00108924 10.40917473 0 0 Z " fill="#72C6B8" transform="translate(544,338)"/>
<path d="M0 0 C0.66 0 1.32 0 2 0 C2.50612064 2.8740422 3.00506541 5.74902873 3.5 8.625 C3.64308594 9.43324219 3.78617187 10.24148438 3.93359375 11.07421875 C4.67876251 15.43877864 5.17272306 19.55238129 5 24 C4.67 24 4.34 24 4 24 C3.34 19.38 2.68 14.76 2 10 C1.01 10.99 0.02 11.98 -1 13 C-1.66 13.66 -2.32 14.32 -3 15 C-2 10 -1 5 0 0 Z " fill="#2A887B" transform="translate(266,261)"/>
<path d="M0 0 C1.09765625 1.75390625 1.09765625 1.75390625 2 4 C1.49609375 5.90234375 1.49609375 5.90234375 0.4375 7.9375 C-2.03569235 12.95933803 -3.94054456 18.11665763 -5.8515625 23.375 C-7 26 -7 26 -9 27 C-6.75424696 17.70179445 -3.45076489 8.90051656 0 0 Z " fill="#308E81" transform="translate(353,357)"/>
<path d="M0 0 C0.66 0.33 1.32 0.66 2 1 C-4.6 7.6 -11.2 14.2 -18 21 C-18 15.4848483 -12.6982596 11.77044785 -9 8 C-6.06452633 5.25405391 -3.06806982 2.59661701 0 0 Z " fill="#2A7F79" transform="translate(172,159)"/>
<path d="M0 0 C5.7574421 2.15592529 7.52319856 7.74772401 10 13 C11.77491072 17.8406656 12.20999091 21.85522275 12 27 C11.67 27 11.34 27 11 27 C10.70867188 25.865625 10.41734375 24.73125 10.1171875 23.5625 C7.29201989 12.65140628 7.29201989 12.65140628 1.13671875 3.34765625 C0 2 0 2 0 0 Z " fill="#64CEBA" transform="translate(534,261)"/>
<path d="M0 0 C0.66 0.66 1.32 1.32 2 2 C1.57725496 7.82180318 -0.72038195 13.68089123 -3 19 C-3.66 19.33 -4.32 19.66 -5 20 C-4.0026554 12.95992045 -2.7758018 6.56098608 0 0 Z " fill="#288279" transform="translate(257,293)"/>
<path d="M0 0 C5.16546958 4.99884153 5.84789162 8.89436555 6 16 C5.0625 19.625 5.0625 19.625 4 22 C3.67 22 3.34 22 3 22 C2.95101563 20.83082031 2.90203125 19.66164063 2.8515625 18.45703125 C2.77649829 16.90883196 2.70095205 15.36065599 2.625 13.8125 C2.57859375 12.65911133 2.57859375 12.65911133 2.53125 11.48242188 C2.31383889 7.26102289 1.90256928 3.85927672 0 0 Z " fill="#85B5AC" transform="translate(454,378)"/>
<path d="M0 0 C7.13788405 5.65082487 13.92784526 12.25137661 17 21 C15.29115995 19.37660195 13.62553283 17.70680947 12 16 C12 15.34 12 14.68 12 14 C11.34 14 10.68 14 10 14 C8.37890625 12.13671875 8.37890625 12.13671875 6.5625 9.6875 C4.09023023 6.36091496 4.09023023 6.36091496 1.27734375 3.33203125 C0 2 0 2 0 0 Z " fill="#267772" transform="translate(531,167)"/>
<path d="M0 0 C0.33 0 0.66 0 1 0 C1.08564209 0.60996826 1.17128418 1.21993652 1.25952148 1.84838867 C1.65069064 4.62830451 2.04407444 7.40790264 2.4375 10.1875 C2.57220703 11.14720703 2.70691406 12.10691406 2.84570312 13.09570312 C2.97783203 14.02705078 3.10996094 14.95839844 3.24609375 15.91796875 C3.36654053 16.77156982 3.4869873 17.6251709 3.61108398 18.50463867 C4.00322148 21.02066964 4.48265373 23.50697664 5 26 C4.34 26 3.68 26 3 26 C0.81157917 17.19421143 -0.4490156 9.08009321 0 0 Z " fill="#24716C" transform="translate(108,268)"/>
<path d="M0 0 C4.43737712 -0.08690253 8.87453634 -0.14035926 13.3125 -0.1875 C14.57513672 -0.21263672 15.83777344 -0.23777344 17.13867188 -0.26367188 C18.34716797 -0.27333984 19.55566406 -0.28300781 20.80078125 -0.29296875 C21.91622314 -0.3086792 23.03166504 -0.32438965 24.1809082 -0.34057617 C27 0 27 0 28.88745117 1.51831055 C29.43816284 2.25174683 29.43816284 2.25174683 30 3 C29.67 3.66 29.34 4.32 29 5 C28.61263672 4.51104248 28.22527344 4.02208496 27.82617188 3.51831055 C25.37872433 1.48346078 23.93384028 1.65370412 20.78125 1.70703125 C19.25951172 1.7215332 19.25951172 1.7215332 17.70703125 1.73632812 C16.11955078 1.7740332 16.11955078 1.7740332 14.5 1.8125 C13.44167969 1.82603516 12.38335937 1.83957031 11.29296875 1.85351562 C9.32997614 1.87970549 7.36704945 1.91204105 5.40429688 1.95239258 C3.60314775 1.98805709 1.80150219 2 0 2 C0 1.34 0 0.68 0 0 Z " fill="#5AC6B1" transform="translate(155,376)"/>
<path d="M0 0 C2.96311369 2.96311369 3.91404329 5.72612156 4.1953125 9.89453125 C4.16050781 11.33892578 4.16050781 11.33892578 4.125 12.8125 C4.10695313 13.78832031 4.08890625 14.76414063 4.0703125 15.76953125 C4.03550781 16.87361328 4.03550781 16.87361328 4 18 C4.66 18.33 5.32 18.66 6 19 C5.67 21.31 5.34 23.62 5 26 C4.67 26 4.34 26 4 26 C3.52018352 22.9792686 3.04112768 19.95841979 2.5625 16.9375 C2.42779297 16.08994141 2.29308594 15.24238281 2.15429688 14.36914062 C1.39685603 9.58433139 0.67051707 4.79777748 0 0 Z " fill="#297875" transform="translate(582,212)"/>
<path d="M0 0 C18.16788712 -0.55333666 18.16788712 -0.55333666 22.74609375 3.57421875 C23.15988281 4.04472656 23.57367188 4.51523438 24 5 C18.44686304 4.35588614 12.98744364 3.49942196 7.5 2.4375 C6.77296875 2.29892578 6.0459375 2.16035156 5.296875 2.01757812 C3.53081963 1.68063335 1.76534574 1.34064317 0 1 C0 0.67 0 0.34 0 0 Z " fill="#2A807A" transform="translate(251,117)"/>
<path d="M0 0 C0.66 0 1.32 0 2 0 C1.67 0.928125 1.34 1.85625 1 2.8125 C-0.14967004 5.92029291 -0.14967004 5.92029291 0 9 C-0.78356224 11.24714456 -1.62370978 13.4748672 -2.5 15.6875 C-2.9640625 16.86699219 -3.428125 18.04648437 -3.90625 19.26171875 C-4.2671875 20.16535156 -4.628125 21.06898438 -5 22 C-6.08557892 18.74004193 -5.91310151 16.89457573 -4.78515625 13.671875 C-4.51123047 12.87265625 -4.23730469 12.0734375 -3.95507812 11.25 C-3.51325195 10.0125 -3.51325195 10.0125 -3.0625 8.75 C-2.77181641 7.90953125 -2.48113281 7.0690625 -2.18164062 6.203125 C-1.46378767 4.13194269 -0.73633881 2.06466738 0 0 Z " fill="#2D857D" transform="translate(251,314)"/>
<path d="M0 0 C1.61945549 4.85836646 -0.36388798 8.03993372 -2.4375 12.5625 C-2.86933594 13.51253906 -3.30117187 14.46257812 -3.74609375 15.44140625 C-5 18 -5 18 -7 21 C-6.45806986 15.669877 -5.15341447 11.42105958 -2.9375 6.5625 C-2.65583984 5.92634766 -2.37417969 5.29019531 -2.08398438 4.63476562 C-1.39710188 3.08636949 -0.69965593 1.54266643 0 0 Z " fill="#308A81" transform="translate(140,199)"/>
<path d="M0 0 C0.66 0.33 1.32 0.66 2 1 C-2.29 5.29 -6.58 9.58 -11 14 C-11.33 13.01 -11.66 12.02 -12 11 C-8.17426612 7.07503959 -4.38002676 3.31820209 0 0 Z " fill="#72E7CA" transform="translate(158,144)"/>
<path d="M0 0 C0.33 0 0.66 0 1 0 C1.36476427 6.32258065 1.36476427 6.32258065 -0.3125 9.4375 C-2 11 -2 11 -5 11 C-5 11.66 -5 12.32 -5 13 C-6.98 13.33 -8.96 13.66 -11 14 C-6.25 10 -6.25 10 -4 10 C-3.71125 9.278125 -3.4225 8.55625 -3.125 7.8125 C-2.08333333 5.20833333 -1.04166667 2.60416667 0 0 Z " fill="#381A2E" transform="translate(624,557)"/>
<path d="M0 0 C1.4650113 4.50371428 -0.13630407 7.58005406 -1.9375 11.75 C-2.22818359 12.44738281 -2.51886719 13.14476562 -2.81835938 13.86328125 C-3.53551703 15.57975695 -4.26643402 17.29047232 -5 19 C-5.66 18.67 -6.32 18.34 -7 18 C-6.02429039 15.18625639 -5.04461694 12.3740064 -4.0625 9.5625 C-3.78470703 8.76005859 -3.50691406 7.95761719 -3.22070312 7.13085938 C-2.95322266 6.36708984 -2.68574219 5.60332031 -2.41015625 4.81640625 C-2.16402588 4.10943604 -1.91789551 3.40246582 -1.66430664 2.67407227 C-1 1 -1 1 0 0 Z " fill="#247970" transform="translate(332,351)"/>
<path d="M0 0 C0.66 0.33 1.32 0.66 2 1 C0.17778624 7.61242722 -2.05223604 13.80520671 -5 20 C-5.33 20 -5.66 20 -6 20 C-6.5910701 15.41920674 -4.92541663 12.25983739 -3.0234375 8.2265625 C-1.79228317 5.54809697 -0.86631818 2.81553408 0 0 Z " fill="#298378" transform="translate(324,371)"/>
<path d="M0 0 C0.33 0 0.66 0 1 0 C0.85866501 1.77119803 0.71176792 3.54195287 0.5625 5.3125 C0.48128906 6.29863281 0.40007812 7.28476563 0.31640625 8.30078125 C0 11 0 11 -1 14 C-1.66 14 -2.32 14 -3 14 C-3.33 15.98 -3.66 17.96 -4 20 C-4.97812873 16.94371936 -5.00835683 15.14722553 -4.00390625 12.109375 C-3.77509766 11.40039062 -3.54628906 10.69140625 -3.31054688 9.9609375 C-3.06369141 9.23132813 -2.81683594 8.50171875 -2.5625 7.75 C-2.19801758 6.63238281 -2.19801758 6.63238281 -1.82617188 5.4921875 C-1.22667019 3.65841765 -0.61455513 1.82877996 0 0 Z " fill="#23726C" transform="translate(253,228)"/>
<path d="M0 0 C-1.49920512 3.11373372 -3.08152136 6.12228205 -5 9 C-5.66 9 -6.32 9 -7 9 C-7.33 10.65 -7.66 12.3 -8 14 C-8.83414558 11.61519919 -9.11903995 10.36680914 -8.328125 7.9296875 C-7.79445313 6.91261719 -7.79445313 6.91261719 -7.25 5.875 C-6.90453125 5.19179687 -6.5590625 4.50859375 -6.203125 3.8046875 C-4.56610223 1.34915334 -3.03291252 0 0 0 Z " fill="#5ECCB5" transform="translate(266,207)"/>
<path d="M0 0 C0.33 0.66 0.66 1.32 1 2 C-0.61987669 4.31624435 -2.24555743 6.62800082 -3.875 8.9375 C-4.33519531 9.59685547 -4.79539062 10.25621094 -5.26953125 10.93554688 C-8.7734375 15.88671875 -8.7734375 15.88671875 -11 17 C-9.56407335 12.88016856 -7.53749031 9.74182002 -4.9375 6.25 C-4.22464844 5.28578125 -3.51179688 4.3215625 -2.77734375 3.328125 C-1 1 -1 1 0 0 Z " fill="#2C8179" transform="translate(378,174)"/>
<path d="M0 0 C0.52207031 0.24234375 1.04414063 0.4846875 1.58203125 0.734375 C1.03933594 0.98832031 0.49664062 1.24226562 -0.0625 1.50390625 C-1.13564453 2.02017578 -1.13564453 2.02017578 -2.23046875 2.546875 C-2.93816406 2.88332031 -3.64585937 3.21976563 -4.375 3.56640625 C-6.45396205 4.63617018 -6.45396205 4.63617018 -7.94921875 6.265625 C-9.58330125 7.8997075 -10.96910472 8.57539114 -13.10546875 9.421875 C-14.19859375 9.855 -15.29171875 10.288125 -16.41796875 10.734375 C-15.08289189 6.72914442 -12.54459098 5.57548081 -9.10546875 3.484375 C-8.52345703 3.10796875 -7.94144531 2.7315625 -7.34179688 2.34375 C-3.00218627 -0.32980398 -3.00218627 -0.32980398 0 0 Z " fill="#206D6A" transform="translate(190.41796875,149.265625)"/>
<path d="M0 0 C0.33 0 0.66 0 1 0 C1.67090715 7.24579719 -0.41874318 11.75838097 -4 18 C-5.68550367 14.62899267 -3.68863036 11.27985368 -2.5625 7.875 C-2.19801758 6.74384766 -2.19801758 6.74384766 -1.82617188 5.58984375 C-1.22404181 3.72442121 -0.61286537 1.86192317 0 0 Z " fill="#1F6364" transform="translate(580,298)"/>
<path d="M0 0 C0 3.86695678 -1.41909971 6.5088452 -3 10 C-3.99 10 -4.98 10 -6 10 C-6.33 10.99 -6.66 11.98 -7 13 C-8.32 12.34 -9.64 11.68 -11 11 C-10.67 9.68 -10.34 8.36 -10 7 C-9.01 8.485 -9.01 8.485 -8 10 C-5.03448561 7.23900384 -2.99674143 4.51806824 -1 1 C-0.67 0.67 -0.34 0.34 0 0 Z " fill="#349386" transform="translate(355,168)"/>
<path d="M0 0 C0.66 0.33 1.32 0.66 2 1 C1.566875 2.485 1.566875 2.485 1.125 4 C0.32070492 6.77538442 -0.3592584 9.55777106 -1 12.375 C-1.33 13.57125 -1.66 14.7675 -2 16 C-2.66 16.33 -3.32 16.66 -4 17 C-3.45018084 10.95198929 -2.09570426 5.69398894 0 0 Z " fill="#339689" transform="translate(262,276)"/>
<path d="M0 0 C0.99 0.495 0.99 0.495 2 1 C2.88671875 4.0546875 2.88671875 4.0546875 3.6875 7.875 C3.95949219 9.13054687 4.23148437 10.38609375 4.51171875 11.6796875 C5 15 5 15 4 18 C1.46686188 12.02903158 -0.31915997 6.5427793 0 0 Z " fill="#1E6C6A" transform="translate(294,288)"/>
<path d="M0 0 C1 2 1 2 0.3125 4.75 C-3.02409639 13.01204819 -3.02409639 13.01204819 -7 15 C-5.45454854 9.52067211 -2.84456788 4.88570819 0 0 Z " fill="#287C75" transform="translate(366,191)"/>
<path d="M0 0 C4 4 8 8 12 12 C11.67 12.66 11.34 13.32 11 14 C9.15730989 12.23807715 7.32609243 10.46648194 5.5 8.6875 C4.97535156 8.18798828 4.45070312 7.68847656 3.91015625 7.17382812 C2.5489154 5.83910496 1.26860484 4.4230616 0 3 C0 2.01 0 1.02 0 0 Z " fill="#206D67" transform="translate(179,407)"/>
<path d="M0 0 C0.99 0.33 1.98 0.66 3 1 C2.47599609 2.03060547 2.47599609 2.03060547 1.94140625 3.08203125 C1.48636719 3.98308594 1.03132813 4.88414062 0.5625 5.8125 C0.11003906 6.70582031 -0.34242188 7.59914063 -0.80859375 8.51953125 C-2.0831605 11.03999478 -2.0831605 11.03999478 -3 14 C-4.09362142 10.74829897 -3.93111886 9.02646111 -2.625 5.875 C-2.34914063 5.19179688 -2.07328125 4.50859375 -1.7890625 3.8046875 C-1.22762922 2.52061734 -0.62674453 1.25348905 0 0 Z " fill="#206F6B" transform="translate(343,385)"/>
<path d="M0 0 C4.13621084 3.3810038 7.81316569 6.66590534 11 11 C9.68 11.33 8.36 11.66 7 12 C6.773125 11.278125 6.54625 10.55625 6.3125 9.8125 C4.75528356 6.47560763 2.61945291 4.55051994 0 2 C0 1.34 0 0.68 0 0 Z " fill="#175B5B" transform="translate(314,540)"/>
<path d="M0 0 C4.26866909 0.47429657 6.10933148 3.03521178 9 6 C9.99 6.33 10.98 6.66 12 7 C11.67 8.32 11.34 9.64 11 11 C9.16365304 9.35742342 7.3308593 7.71117305 5.5 6.0625 C4.97535156 5.59392578 4.45070313 5.12535156 3.91015625 4.64257812 C2.5878256 3.44904592 1.29166061 2.22665821 0 1 C0 0.67 0 0.34 0 0 Z " fill="#206D69" transform="translate(292,490)"/>
<path d="M0 0 C1.1446875 0.4021875 1.1446875 0.4021875 2.3125 0.8125 C7.16474415 2.3750871 12.07563928 3.68566885 17 5 C17 5.33 17 5.66 17 6 C4.99777855 5.78943471 4.99777855 5.78943471 1.75 2.4375 C1.1725 1.633125 0.595 0.82875 0 0 Z " fill="#C46067" transform="translate(361,565)"/>
<path d="M0 0 C0.66 0.33 1.32 0.66 2 1 C-0.97 4.3 -3.94 7.6 -7 11 C-7.99 10.67 -8.98 10.34 -10 10 C-6.7 6.7 -3.4 3.4 0 0 Z " fill="#66D8C0" transform="translate(374,148)"/>
<path d="M0 0 C0.66 0 1.32 0 2 0 C0.6744419 3.62276315 -0.94346955 6.63505348 -3.125 9.8125 C-3.66382813 10.60269531 -4.20265625 11.39289063 -4.7578125 12.20703125 C-5.37269531 13.09455078 -5.37269531 13.09455078 -6 14 C-6.33 13.01 -6.66 12.02 -7 11 C-6.07421875 9.31640625 -6.07421875 9.31640625 -4.6875 7.5625 C-2.82542646 5.12111469 -1.24386887 2.8269747 0 0 Z " fill="#77B5AC" transform="translate(537,362)"/>
<path d="M0 0 C1.53166168 4.08443115 0.63081652 7.79455657 0 12 C-0.66 12 -1.32 12 -2 12 C-2.33 12.99 -2.66 13.98 -3 15 C-2.5547115 9.72684667 -1.91626837 4.98229776 0 0 Z " fill="#5CC9B3" transform="translate(245,259)"/>
<path d="M0 0 C0.99 0.33 1.98 0.66 3 1 C0.36 3.64 -2.28 6.28 -5 9 C-5 4.61031544 -2.87194899 3.23094261 0 0 Z " fill="#247572" transform="translate(159,171)"/>
<path d="M0 0 C3.18706942 1.43561686 5.62169105 3.20266329 8.25 5.5 C8.95640625 6.1084375 9.6628125 6.716875 10.390625 7.34375 C12 9 12 9 12 11 C8.57472113 9.52651292 6.35044942 7.59092154 3.75 4.9375 C3.04359375 4.22464844 2.3371875 3.51179688 1.609375 2.77734375 C0 1 0 1 0 0 Z " fill="#267770" transform="translate(258,458)"/>
<path d="M0 0 C1 3 1 3 0.00390625 5.48046875 C-0.47175781 6.37378906 -0.94742187 7.26710938 -1.4375 8.1875 C-1.91058594 9.08855469 -2.38367188 9.98960937 -2.87109375 10.91796875 C-3.24363281 11.60503906 -3.61617188 12.29210937 -4 13 C-5 11 -5 11 -4.51171875 8.90625 C-4.23972656 8.1121875 -3.96773438 7.318125 -3.6875 6.5 C-3.42324219 5.7059375 -3.15898437 4.911875 -2.88671875 4.09375 C-2 2 -2 2 0 0 Z " fill="#22736D" transform="translate(349,371)"/>
<path d="M0 0 C1.38609004 3.15020465 0.89180331 4.31918022 -0.25 7.6875 C-2 11 -2 11 -5 12 C-3.41037341 7.96479403 -1.71767682 3.98188718 0 0 Z " fill="#154B55" transform="translate(574,317)"/>
<path d="M0 0 C0.66 0 1.32 0 2 0 C2.69685498 1.6210103 3.38222861 3.24696066 4.0625 4.875 C4.63677734 6.23238281 4.63677734 6.23238281 5.22265625 7.6171875 C6 10 6 10 5 12 C4.16180842 10.37750059 3.3295884 8.75191503 2.5 7.125 C2.0359375 6.22007812 1.571875 5.31515625 1.09375 4.3828125 C0 2 0 2 0 0 Z " fill="#257270" transform="translate(576,196)"/>
<path d="M0 0 C0.66 0.33 1.32 0.66 2 1 C1.04882866 2.1725131 0.08882991 3.33787015 -0.875 4.5 C-1.40867187 5.1496875 -1.94234375 5.799375 -2.4921875 6.46875 C-2.98976563 6.9740625 -3.48734375 7.479375 -4 8 C-4.66 8 -5.32 8 -6 8 C-4.55746343 4.63408134 -2.66735273 2.48952921 0 0 Z " fill="#918F8F" transform="translate(372,441)"/>
<path d="M0 0 C1.21386936 3.64160808 0.6674695 4.33165469 -0.9375 7.6875 C-1.31777344 8.49574219 -1.69804687 9.30398438 -2.08984375 10.13671875 C-2.39019531 10.75160156 -2.69054687 11.36648438 -3 12 C-3.66 12 -4.32 12 -5 12 C-4.54738642 10.56068883 -4.08767021 9.12361001 -3.625 7.6875 C-3.24214844 6.48673828 -3.24214844 6.48673828 -2.8515625 5.26171875 C-2 3 -2 3 0 0 Z " fill="#1C6965" transform="translate(331,418)"/>
<path d="M0 0 C0.33 0.66 0.66 1.32 1 2 C-0.98 4.31 -2.96 6.62 -5 9 C-5.66 8.67 -6.32 8.34 -7 8 C-4.69 5.36 -2.38 2.72 0 0 Z " fill="#65D9C1" transform="translate(145,156)"/>
<path d="M0 0 C1.670625 0.061875 1.670625 0.061875 3.375 0.125 C2.776875 0.41375 2.17875 0.7025 1.5625 1 C-2.1491346 2.90884065 -3.97607192 4.31978136 -5.625 8.125 C-5.75 5.25 -5.75 5.25 -5.625 2.125 C-3.625 0.125 -3.625 0.125 0 0 Z " fill="#0F0C1E" transform="translate(570.625,506.875)"/>
<path d="M0 0 C0.99 0.33 1.98 0.66 3 1 C1.37660195 2.70884005 -0.29319053 4.37446717 -2 6 C-2.66 6 -3.32 6 -4 6 C-2.84826645 3.53199953 -1.95216435 1.95216435 0 0 Z " fill="#6ADCC0" transform="translate(68,336)"/>
<path d="M0 0 C3.375 0.3125 3.375 0.3125 7 1 C7.66 1.99 8.32 2.98 9 4 C4.545 3.01 4.545 3.01 0 2 C0 1.34 0 0.68 0 0 Z " fill="#233242" transform="translate(569,423)"/>
<path d="M0 0 C0.33 0 0.66 0 1 0 C1 1.65 1 3.3 1 5 C1.66 5 2.32 5 3 5 C3.33 6.32 3.66 7.64 4 9 C3.01 9.495 3.01 9.495 2 10 C2 9.34 2 8.68 2 8 C1.34 8 0.68 8 0 8 C0 5.36 0 2.72 0 0 Z " fill="#5DC2AD" transform="translate(63,342)"/>
<path d="M0 0 C1.98 0.99 1.98 0.99 4 2 C3.01 3.485 3.01 3.485 2 5 C1.61500109 6.65549531 1.27206865 8.3222433 1 10 C0.67 10 0.34 10 0 10 C0 6.7 0 3.4 0 0 Z " fill="#EA5F60" transform="translate(580,559)"/>
<path d="M0 0 C1 2 1 2 0.25 4.5625 C-1 7 -1 7 -4 8 C-2.25 2.25 -2.25 2.25 0 0 Z " fill="#847E81" transform="translate(365,449)"/>
<path d="M0 0 C0.99 0.33 1.98 0.66 3 1 C2.2884375 1.804375 2.2884375 1.804375 1.5625 2.625 C-0.28186076 5.42842836 -0.62456847 7.69620258 -1 11 C-1.33 11 -1.66 11 -2 11 C-2.28571429 3.57142857 -2.28571429 3.57142857 0 0 Z " fill="#165155" transform="translate(64,337)"/>
<path d="M0 0 C0.66 0.33 1.32 0.66 2 1 C-1.28804981 3.91227269 -3.59885603 5.49701212 -8 6 C-5.38485683 3.87961365 -2.80362384 1.86908256 0 0 Z " fill="#257873" transform="translate(409,149)"/>
</svg>
